<svg viewBox="0 0 32 32" xmlns="http://www.w3.org/2000/svg"><circle cx="16" cy="16" r="15" fill="#F7931A"/><path d="M22.8 14.3c.3-2.1-1.3-3.2-3.5-4l.7-3-1.8-.4-.7 2.9c-.5-.1-1-.3-1.5-.4l.7-2.9-1.8-.4-.7 3c-.4-.1-.8-.2-1.2-.3l-.1-.1-2.5-.6-.5 1.8s1.3.3 1.3.3c.7.2.8.6.8 1l-.8 3.2c.1 0 .2 0 .2.1l-.2-.1-1.1 4.5c-.1.2-.3.6-.9.5 0 0-1.3-.3-1.3-.3l-.9 1.9 2.4.6c.4.1.9.2 1.3.3l-.8 3.1 1.8.4.7-3c.5.1 1 .3 1.5.4l-.7 3 1.8.4.7-3.1c3.2.6 5.6-.3 6.6-2.6.8-1.8 0-2.8-1.2-3.5.9-.2 1.5-.8 1.7-1.9zm-3 4.2c-.6 2.3-4.3 1.1-5.5.7l1-4c1.2.3 5.1.9 4.5 3.3zm.6-4.3c-.5 2.1-3.6 1-4.6.8l.9-3.8c1 .2 4.2.7 3.7 3z" fill="white"/></svg>