<svg viewBox="0 0 32 32" xmlns="http://www.w3.org/2000/svg"><circle cx="16" cy="16" r="15" fill="#26A17B"/><path d="M17.2 17.8v2.7c0 .1-.1.2-.2.2h-1.9c-.1 0-.2-.1-.2-.2v-2.7c-3.3-.2-5.4-1.6-5.4-1.6s.8-1.4 1.3-1.4c.1 0 .2 0 .3.1 1.2.8 2.8 1.2 4.2 1.2h1.8c1.4 0 3-.4 4.2-1.2.1-.1.2-.1.3-.1.5 0 1.3 1.4 1.3 1.4s-2.1 1.4-5.4 1.6v.8zm-1.9-2.2h-1.8c-1.5 0-3.3-.5-4.5-1.5-.2-.2-.5-.1-.5.2v.4c0 2.6 3.3 4.7 7.4 4.7h.1c4.1 0 7.4-2.1 7.4-4.7v-.4c0-.3-.3-.4-.5-.2-1.2 1-3 1.5-4.5 1.5h-1.8v-4.1h3.2c.4 0 .7-.3.7-.7v-1.1c0-.4-.3-.7-.7-.7h-3.2V6.7c0-.4-.3-.7-.7-.7h-1.3c-.4 0-.7.3-.7.7v2.1h-3.2c-.4 0-.7.3-.7.7v1.1c0 .4.3.7.7.7h3.2v4.1z" fill="white"/></svg>