<svg width="16" height="15" viewBox="0 0 16 15" fill="none" xmlns="http://www.w3.org/2000/svg">
<g id="Group">
<path id="Vector" d="M12.875 9.375C13.1071 9.60693 13.4219 9.7372 13.75 9.7372C14.0781 9.7372 14.3929 9.60693 14.625 9.375C14.8569 9.14286 14.9872 8.82814 14.9872 8.5C14.9872 8.17186 14.8569 7.85714 14.625 7.625L10 3" stroke="white" stroke-linecap="round" stroke-linejoin="round"/>
<path id="Vector_2" d="M0.5 5.5V0.5H5.55C5.70046 0.500099 5.85077 0.509785 6 0.529" stroke="white" stroke-linecap="round" stroke-linejoin="round"/>
<path id="Vector_3" d="M11.5001 8L13.0131 9.513C13.245 9.74514 13.3753 10.0599 13.3753 10.388C13.3753 10.7161 13.245 11.0309 13.0131 11.263C12.7809 11.4949 12.4662 11.6252 12.1381 11.6252C11.8099 11.6252 11.4952 11.4949 11.2631 11.263L9.73608 9.736" stroke="white" stroke-linecap="round" stroke-linejoin="round"/>
<path id="Vector_4" d="M10.875 10.875C11.1069 11.1071 11.2372 11.4219 11.2372 11.75C11.2372 12.0781 11.1069 12.3929 10.875 12.625" stroke="white" stroke-linecap="round" stroke-linejoin="round"/>
<path id="Vector_5" d="M10 3L6.55103 5.587C6.38541 5.71107 6.18854 5.78661 5.98243 5.80515C5.77633 5.82369 5.56913 5.78452 5.38403 5.692C5.22594 5.61302 5.08889 5.4976 4.98417 5.35524C4.87945 5.21289 4.81007 5.04769 4.78175 4.87325C4.75342 4.69881 4.76697 4.52014 4.82126 4.35197C4.87556 4.1838 4.96905 4.03094 5.09403 3.906L8.15303 1.239C8.69921 0.762691 9.39934 0.500186 10.124 0.5H15.5V5.5" stroke="white" stroke-linecap="round" stroke-linejoin="round"/>
<path id="Vector_6" d="M1.87501 7.12548L1.62469 7.3758C1.14161 7.85888 1.14161 8.6421 1.62469 9.12518L1.6254 9.12589C2.10848 9.60897 2.8917 9.60896 3.37478 9.12589L3.6251 8.87557C4.10817 8.39249 4.10818 7.60927 3.6251 7.12619L3.62439 7.12548C3.14131 6.6424 2.35809 6.6424 1.87501 7.12548Z" stroke="white" stroke-linecap="round" stroke-linejoin="round"/>
<path id="Vector_7" d="M3.69502 8.80595L3.30682 9.19416C2.82374 9.67724 2.82374 10.4605 3.30682 10.9435L3.30753 10.9442C3.79061 11.4273 4.57383 11.4273 5.05691 10.9442L5.44511 10.556C5.92819 10.073 5.92819 9.28974 5.44511 8.80666L5.4444 8.80596C4.96133 8.32288 4.1781 8.32288 3.69502 8.80595Z" stroke="white" stroke-linecap="round" stroke-linejoin="round"/>
<path id="Vector_8" d="M5.30689 10.6929L5.05658 10.9432C4.5735 11.4263 4.5735 12.2095 5.05658 12.6926L5.05728 12.6933C5.54036 13.1763 6.32359 13.1763 6.80667 12.6933L7.05698 12.443C7.54006 11.9599 7.54006 11.1766 7.05698 10.6936L7.05627 10.6929C6.5732 10.2098 5.78997 10.2098 5.30689 10.6929Z" stroke="white" stroke-linecap="round" stroke-linejoin="round"/>
<path id="Vector_9" d="M7.07689 12.4234L6.81738 12.6829C6.40303 13.0972 6.40287 13.7688 6.81703 14.183C7.23118 14.5971 7.90281 14.597 8.31715 14.1826L8.57666 13.9231C8.99101 13.5088 8.99117 12.8372 8.57701 12.423C8.16286 12.0089 7.49123 12.009 7.07689 12.4234Z" stroke="white" stroke-linecap="round" stroke-linejoin="round"/>
</g>
</svg>
