<svg width="16" height="16" viewBox="0 0 16 16" fill="none" xmlns="http://www.w3.org/2000/svg">
<g id="Group">
<path id="Vector" d="M2.5 9.5H5.5V15.5H3.5C2.70435 15.5 1.94129 15.1839 1.37868 14.6213C0.81607 14.0587 0.5 13.2956 0.5 12.5V8C0.5 6.01088 1.29018 4.10322 2.6967 2.6967C4.10322 1.29018 6.01088 0.5 8 0.5C9.98912 0.5 11.8968 1.29018 13.3033 2.6967C14.7098 4.10322 15.5 6.01088 15.5 8V12.5C15.5 13.2956 15.1839 14.0587 14.6213 14.6213C14.0587 15.1839 13.2956 15.5 12.5 15.5H10.5V9.5H13.5" stroke="white" stroke-linecap="round" stroke-linejoin="round"/>
</g>
</svg>
