<svg xmlns="http://www.w3.org/2000/svg" width="16" height="16" viewBox="0 0 16 16" fill="none">
    <path d="M7.03062 1.62473C7.15296 1.76053 7.30246 1.86911 7.46945 1.94343C7.63644 2.01775 7.81718 2.05615 7.99995 2.05615C8.18273 2.05615 8.36347 2.01775 8.53046 1.94343C8.69744 1.86911 8.84695 1.76053 8.96929 1.62473L9.59595 0.930727C9.77665 0.730425 10.0149 0.590991 10.2781 0.531582C10.5412 0.472174 10.8163 0.495706 11.0655 0.598946C11.3147 0.702186 11.5259 0.880068 11.6699 1.10815C11.814 1.33623 11.8838 1.60332 11.87 1.87273L11.822 2.80606C11.8127 2.9886 11.8418 3.17105 11.9074 3.34163C11.9731 3.51221 12.0737 3.66713 12.203 3.79637C12.3322 3.92561 12.4871 4.02629 12.6577 4.09193C12.8283 4.15756 13.0108 4.18668 13.1933 4.17739L14.1266 4.13006C14.3957 4.11679 14.6623 4.18707 14.8899 4.33125C15.1175 4.47544 15.2949 4.68647 15.3978 4.93544C15.5008 5.1844 15.5242 5.45911 15.4649 5.72191C15.4056 5.98472 15.2665 6.22275 15.0666 6.40339L14.372 7.03073C14.2363 7.15318 14.1279 7.30272 14.0537 7.46969C13.9795 7.63666 13.9412 7.81734 13.9412 8.00006C13.9412 8.18278 13.9795 8.36346 14.0537 8.53043C14.1279 8.6974 14.2363 8.84695 14.372 8.96939L15.0666 9.59606C15.2669 9.77675 15.4064 10.015 15.4658 10.2782C15.5252 10.5413 15.5016 10.8164 15.3984 11.0656C15.2952 11.3148 15.1173 11.526 14.8892 11.67C14.6611 11.8141 14.394 11.8839 14.1246 11.8701L13.1913 11.8221C13.0088 11.8128 12.8264 11.8419 12.6559 11.9075C12.4854 11.9731 12.3305 12.0737 12.2012 12.2029C12.072 12.332 11.9713 12.4869 11.9056 12.6574C11.84 12.8279 11.8108 13.0102 11.82 13.1927L11.868 14.1261C11.881 14.3949 11.8107 14.6612 11.6667 14.8886C11.5226 15.1159 11.3118 15.2932 11.0631 15.3962C10.8144 15.4991 10.54 15.5228 10.2774 15.4638C10.0147 15.4048 9.77674 15.2661 9.59595 15.0667L8.96929 14.3727C8.84684 14.2371 8.6973 14.1287 8.53032 14.0545C8.36335 13.9803 8.18267 13.942 7.99995 13.942C7.81724 13.942 7.63656 13.9803 7.46958 14.0545C7.30261 14.1287 7.15307 14.2371 7.03062 14.3727L6.40395 15.0667C6.22313 15.2655 5.98538 15.4037 5.72315 15.4624C5.46092 15.5211 5.18696 15.4974 4.93865 15.3947C4.69034 15.292 4.47975 15.1152 4.33563 14.8884C4.1915 14.6616 4.12084 14.3958 4.13329 14.1274L4.18129 13.1941C4.19092 13.0111 4.16193 12.8282 4.09622 12.6572C4.0305 12.4862 3.92953 12.331 3.79987 12.2015C3.67021 12.0721 3.51476 11.9715 3.34364 11.9061C3.17251 11.8407 2.98954 11.8121 2.80662 11.8221L1.87329 11.8701C1.60406 11.8835 1.33727 11.8133 1.10952 11.6691C0.881772 11.5249 0.704229 11.3137 0.601251 11.0646C0.498272 10.8155 0.474904 10.5406 0.534352 10.2777C0.593801 10.0147 0.733153 9.77665 0.933288 9.59606L1.62795 8.96939C1.76357 8.84695 1.87198 8.6974 1.94618 8.53043C2.02038 8.36346 2.05872 8.18278 2.05872 8.00006C2.05872 7.81734 2.02038 7.63666 1.94618 7.46969C1.87198 7.30272 1.76357 7.15318 1.62795 7.03073L0.933288 6.40339C0.734769 6.22251 0.596843 5.98483 0.538299 5.72272C0.479755 5.46061 0.503441 5.18683 0.60613 4.93867C0.70882 4.69051 0.885518 4.48004 1.11215 4.33594C1.33879 4.19184 1.60434 4.12111 1.87262 4.13339L2.80595 4.18073C2.98883 4.19035 3.17169 4.16138 3.34264 4.09571C3.51359 4.03003 3.66881 3.92912 3.79821 3.79953C3.92761 3.66995 4.02829 3.51458 4.09371 3.34354C4.15914 3.17249 4.18784 2.98959 4.17795 2.80673L4.13329 1.87273C4.12084 1.60429 4.1915 1.33856 4.33563 1.11176C4.47975 0.884955 4.69034 0.708136 4.93865 0.605413C5.18696 0.502691 5.46092 0.479066 5.72315 0.537762C5.98538 0.596458 6.22313 0.734616 6.40395 0.933394L7.03062 1.62473Z" stroke="#fff" stroke-linecap="round" stroke-linejoin="round"/>
    <path d="M9.25 6.00006H7.5C7.29185 5.9994 7.08999 6.07139 6.92923 6.20362C6.76847 6.33585 6.6589 6.52004 6.6194 6.72441C6.5799 6.92878 6.61295 7.14053 6.71286 7.32314C6.81276 7.50575 6.97326 7.64778 7.16667 7.72473L8.93667 8.27473C9.1298 8.35198 9.28997 8.49412 9.38964 8.6767C9.48931 8.85927 9.52225 9.07087 9.48279 9.2751C9.44334 9.47934 9.33395 9.66344 9.17344 9.79575C9.01293 9.92805 8.81134 10.0003 8.60333 10.0001H6.5" stroke="#fff" stroke-linecap="round" stroke-linejoin="round"/>
    <path d="M8 6.00006V5.00006" stroke="#fff" stroke-linecap="round" stroke-linejoin="round"/>
    <path d="M8 11.0001V10.0001" stroke="#fff" stroke-linecap="round" stroke-linejoin="round"/>
</svg>
