<svg width="16" height="16" viewBox="0 0 16 16" fill="none" xmlns="http://www.w3.org/2000/svg">
    <g clip-path="url(#clip0_3495_15521)">
        <path d="M11.8113 10.9629C11.577 10.7285 11.1971 10.7285 10.9628 10.9629C10.7285 11.1972 10.7285 11.5771 10.9628 11.8114L11.8113 10.9629ZM14.5757 15.4243C14.8101 15.6586 15.1899 15.6586 15.4243 15.4243C15.6586 15.19 15.6586 14.8101 15.4243 14.5758L14.5757 15.4243ZM10.9628 11.8114L14.5757 15.4243L15.4243 14.5758L11.8113 10.9629L10.9628 11.8114ZM7.00001 12.4C4.01767 12.4 1.6 9.98236 1.6 7.00001H0.4C0.4 10.6451 3.35493 13.6 7.00001 13.6V12.4ZM12.4 7.00001C12.4 9.98236 9.98236 12.4 7.00001 12.4V13.6C10.6451 13.6 13.6 10.6451 13.6 7.00001H12.4ZM7.00001 1.6C9.98236 1.6 12.4 4.01767 12.4 7.00001H13.6C13.6 3.35493 10.6451 0.4 7.00001 0.4V1.6ZM7.00001 0.4C3.35493 0.4 0.4 3.35493 0.4 7.00001H1.6C1.6 4.01767 4.01767 1.6 7.00001 1.6V0.4Z" fill="white"/>
    </g>
    <defs>
        <clipPath id="clip0_3495_15521">
            <rect width="16" height="16" fill="white"/>
        </clipPath>
    </defs>
</svg>
