<svg xmlns="http://www.w3.org/2000/svg" width="20" height="20" fill="none" viewBox="0 0 20 20"><g clip-path="url(#a)"><path fill="#000" d="M18.16 15.586q-.453 1.048-1.075 1.934-.85 1.209-1.385 1.674-.83.762-1.78.784-.684 0-1.645-.393-.962-.392-1.77-.391-.849 0-1.82.391-.975.394-1.574.413-.912.04-1.82-.804-.58-.506-1.449-1.734-.932-1.31-1.532-3.043-.643-1.871-.643-3.627 0-2.01.87-3.465a5.1 5.1 0 0 1 1.821-1.842 4.9 4.9 0 0 1 2.463-.695q.724.002 1.904.443 1.18.444 1.511.445.25 0 1.675-.524 1.348-.484 2.278-.404 2.524.203 3.787 1.994-2.258 1.369-2.234 3.827.02 1.915 1.386 3.182.617.585 1.385.908-.166.483-.353.927M14.3.4q0 1.502-1.093 2.799c-.879 1.028-1.942 1.621-3.095 1.528a3 3 0 0 1-.023-.38c0-.96.418-1.987 1.16-2.827q.556-.64 1.414-1.062Q13.519.041 14.28 0q.021.202.02.4"/></g><defs><clipPath id="a"><path fill="#fff" d="M0 0h20v20H0z"/></clipPath></defs></svg>