<svg xmlns="http://www.w3.org/2000/svg" width="21" height="20" fill="none" viewBox="0 0 21 20"><g clip-path="url(#a)"><path fill="#fff" d="M20.5 10c0-5.523-4.477-10-10-10S.5 4.477.5 10c0 4.991 3.657 9.128 8.438 9.878v-6.987h-2.54V10h2.54V7.797c0-2.506 1.492-3.89 3.777-3.89 1.093 0 2.238.195 2.238.195v2.46h-1.26c-1.243 0-1.63.771-1.63 1.563V10h2.773l-.443 2.89h-2.33v6.988c4.78-.75 8.437-4.887 8.437-9.878"/><path fill="#1877f2" d="m14.393 12.89.443-2.89h-2.774V8.125c0-.79.388-1.562 1.63-1.562h1.261V4.102s-1.144-.196-2.238-.196c-2.284 0-3.777 1.385-3.777 3.89V10h-2.54v2.89h2.54v6.988a10 10 0 0 0 3.124 0v-6.987z"/></g><defs><clipPath id="a"><path fill="#fff" d="M.5 0h20v20H.5z"/></clipPath></defs></svg>