<svg xmlns="http://www.w3.org/2000/svg" width="21" height="16" fill="none" viewBox="0 0 21 16"><path fill="#fff" d="M20.324 1.973 14.258 8l6.066 6.027c.11-.23.176-.483.176-.754V2.727c0-.271-.067-.524-.176-.754M18.742.97H2.258c-.27 0-.524.066-.753.176l7.752 7.713a1.76 1.76 0 0 0 2.486 0l7.752-7.713a1.7 1.7 0 0 0-.753-.176M.676 1.973c-.11.23-.176.483-.176.754v10.546c0 .271.067.524.176.754L6.742 8z"/><path fill="#fff" d="m13.43 8.829-.859.858a2.933 2.933 0 0 1-4.142 0l-.859-.858-6.065 6.026c.229.11.482.176.753.176h16.484c.27 0 .524-.066.753-.176z"/></svg>