<svg width="16" height="16" viewBox="0 0 16 16" fill="none" xmlns="http://www.w3.org/2000/svg">
<g id="Group">
<path id="Vector" d="M2.11719 10.8901L5.10967 13.8826L4.11265 14.8796C3.91629 15.0767 3.683 15.2332 3.42611 15.34C3.16923 15.4468 2.89379 15.502 2.61558 15.5022C2.33737 15.5025 2.06183 15.4479 1.80474 15.3415C1.54766 15.2352 1.31407 15.0792 1.11734 14.8825V14.8825C0.920614 14.6857 0.764613 14.4521 0.658266 14.1951C0.551919 13.938 0.497314 13.6624 0.497577 13.3842C0.49784 13.106 0.552965 12.8306 0.659797 12.5737C0.766629 12.3168 0.923071 12.0835 1.12017 11.8872L2.11719 10.8901Z" stroke="white" stroke-linecap="round" stroke-linejoin="round"/>
<path id="Vector_2" d="M6.88519 13.0062L14.5452 9.22618C14.7487 9.15859 14.9338 9.04498 15.0862 8.89418C15.3507 8.62896 15.4991 8.26952 15.4986 7.89491C15.4982 7.52031 15.3489 7.16123 15.0837 6.89668C14.8185 6.63213 14.459 6.48377 14.0844 6.48424C13.7098 6.4847 13.3507 6.63396 13.0862 6.89918C13.3301 6.63149 13.4617 6.28028 13.4538 5.91823C13.4459 5.55619 13.2992 5.21104 13.0439 4.9542C12.7886 4.69737 12.4443 4.54852 12.0823 4.53847C11.7203 4.52841 11.3683 4.65792 11.0992 4.90018C11.3644 4.63563 11.5137 4.27655 11.5141 3.90195C11.5146 3.52735 11.3662 3.1679 11.1017 2.90268C10.8371 2.63746 10.4781 2.4882 10.1035 2.48774C9.72885 2.48727 9.3694 2.63563 9.10419 2.90018C9.36874 2.63496 9.5171 2.27552 9.51663 1.90091C9.51616 1.52631 9.3669 1.16723 9.10169 0.902681C8.83647 0.638128 8.47702 0.489767 8.10242 0.490235C7.72782 0.490704 7.36874 0.639965 7.10419 0.905181C6.95305 1.05731 6.83938 1.24253 6.77219 1.44618L2.99219 9.11418" stroke="white" stroke-linecap="round" stroke-linejoin="round"/>
</g>
</svg>
