<svg xmlns="http://www.w3.org/2000/svg" width="16" height="16" viewBox="0 0 16 16" fill="none">
    <path d="M13.4536 2.86377C12.1882 4.20627 11.4082 6.00948 11.4082 8.0002C11.4082 9.99091 12.1893 11.7941 13.4536 13.1366" stroke="white" stroke-miterlimit="10" stroke-linecap="round" stroke-linejoin="round"/>
    <path d="M2.54492 2.86377C3.81028 4.20627 4.59028 6.00948 4.59028 8.0002C4.59028 9.99091 3.80921 11.7941 2.54492 13.1366" stroke="white" stroke-miterlimit="10" stroke-linecap="round" stroke-linejoin="round"/>
    <path d="M8 0.5V15.5" stroke="white" stroke-miterlimit="10" stroke-linecap="round" stroke-linejoin="round"/>
    <path d="M15.5 8H0.5" stroke="white" stroke-miterlimit="10" stroke-linecap="round" stroke-linejoin="round"/>
    <path d="M8 15.5C12.1421 15.5 15.5 12.1421 15.5 8C15.5 3.85786 12.1421 0.5 8 0.5C3.85786 0.5 0.5 3.85786 0.5 8C0.5 12.1421 3.85786 15.5 8 15.5Z" stroke="white" stroke-miterlimit="10" stroke-linecap="round" stroke-linejoin="round"/>
</svg>
