<svg width="16" height="16" viewBox="0 0 16 16" fill="none" xmlns="http://www.w3.org/2000/svg">
<path d="M8.00138 0.5C5.28794 2.80308 1.95898 4.95821 1.95898 4.95821V7.65969C1.95898 7.65969 5.94812 4.95821 8.00138 3.26056" stroke="white" stroke-linecap="round" stroke-linejoin="round"/>
<path d="M7.99953 6.021C7.99953 6.021 3.83431 9.29812 1.89844 10.4646V13.1807C1.89844 13.1807 4.46489 15.5721 7.99953 15.4984" stroke="white" stroke-linecap="round" stroke-linejoin="round"/>
<path d="M7.99998 8.7373L3.87891 11.8225C3.87891 11.8225 5.62415 13.2358 7.99998 13.2211" stroke="white" stroke-linecap="round" stroke-linejoin="round"/>
<path d="M1.89844 13.1806C1.89844 13.1806 2.71808 12.6912 3.87846 11.8223" stroke="white" stroke-linecap="round" stroke-linejoin="round"/>
<path d="M8 0.5C10.7134 2.80308 14.0424 4.95821 14.0424 4.95821V7.65969C14.0424 7.65969 10.0533 4.95821 8 3.26056" stroke="white" stroke-linecap="round" stroke-linejoin="round"/>
<path d="M8 6.021C8 6.021 12.1652 9.29812 14.1011 10.4646V13.1807C14.1011 13.1807 11.5346 15.5721 8 15.4984" stroke="white" stroke-linecap="round" stroke-linejoin="round"/>
<path d="M8 8.7373L12.1211 11.8225C12.1211 11.8225 10.3758 13.2358 8 13.2211" stroke="white" stroke-linecap="round" stroke-linejoin="round"/>
<path d="M14.1011 13.1806C14.1011 13.1806 13.2815 12.6912 12.1211 11.8223" stroke="white" stroke-linecap="round" stroke-linejoin="round"/>
</svg>
