<svg width="16" height="16" viewBox="0 0 16 16" xmlns="http://www.w3.org/2000/svg" fill="none"><g clip-path="url(#clip0_6582_150286)"><path d="M12 11.5C13.3807 11.5 14.5 10.3807 14.5 9C14.5 7.61929 13.3807 6.5 12 6.5C10.6193 6.5 9.5 7.61929 9.5 9C9.5 10.3807 10.6193 11.5 12 11.5Z" stroke="#FFFFFF" stroke-linecap="round" stroke-linejoin="round"/><path d="M3.18555 8.84668L7.15355 12.8147" stroke="#FFFFFF" stroke-linecap="round" stroke-linejoin="round"/><path d="M14.5881 5.38013L15.0881 4.88013C15.2187 4.75005 15.3223 4.59546 15.3931 4.42523C15.4638 4.25499 15.5002 4.07247 15.5002 3.88813C15.5002 3.70379 15.4638 3.52127 15.3931 3.35103C15.3223 3.1808 15.2187 3.02621 15.0881 2.89613L13.1051 0.911129C12.975 0.780511 12.8204 0.676868 12.6502 0.606148C12.4799 0.535428 12.2974 0.499023 12.1131 0.499023C11.9287 0.499023 11.7462 0.535428 11.576 0.606148C11.4057 0.676868 11.2512 0.780511 11.1211 0.911129L3.18508 8.84713C2.19308 9.83913 3.15408 10.8621 2.19308 11.8231L0.705076 13.3111C0.639767 13.3762 0.587946 13.4535 0.552586 13.5386C0.517226 13.6237 0.499023 13.715 0.499023 13.8071C0.499023 13.8993 0.517226 13.9906 0.552586 14.0757C0.587946 14.1608 0.639767 14.2381 0.705076 14.3031L1.70008 15.3001C1.76511 15.3654 1.84241 15.4173 1.92753 15.4526C2.01264 15.488 2.10391 15.5062 2.19608 15.5062C2.28825 15.5062 2.37951 15.488 2.46462 15.4526C2.54974 15.4173 2.62704 15.3654 2.69208 15.3001L4.18008 13.8121C5.14108 12.8511 6.19508 13.7811 7.15608 12.8201L8.39008 11.5771" stroke="#FFFFFF" stroke-linecap="round" stroke-linejoin="round"/></g><defs><clipPath id="clip0_6582_150286"><rect width="16" height="16" fill="#FFFFFF"/></clipPath></defs></svg>
