<svg width="16" height="16" viewBox="0 0 16 16" fill="none" xmlns="http://www.w3.org/2000/svg">
<g clip-path="url(#clip0_12781_122356)">
<path d="M8.77661 1.06205C8.90899 0.944365 9.06853 0.862597 9.24038 0.824354C9.41224 0.786111 9.59083 0.792636 9.75953 0.843321C9.88924 0.886825 10.0011 0.965978 10.1219 1.04453C10.2171 1.10555 10.3289 1.13214 10.4152 1.20223C10.458 1.23727 10.4235 1.2989 10.4235 1.34241C10.536 1.61431 10.5961 1.91158 10.5009 2.2004C10.4235 2.29708 10.2855 2.32306 10.1736 2.36717C10.1558 2.48982 10.1992 2.60281 10.2165 2.72607C10.1909 2.7436 10.1736 2.76112 10.1475 2.77864C10.3117 2.76958 10.4753 2.73453 10.6395 2.70009C10.6996 2.63846 10.7942 2.67351 10.8716 2.66444C10.8805 2.54179 10.9239 2.42819 10.9239 2.30554C10.9478 2.30388 10.9711 2.29795 10.9929 2.28801C11.0013 2.37563 10.9929 2.46324 11.0185 2.55085C11.062 2.58589 11.131 2.56837 11.1827 2.57683C11.1827 2.61188 11.1827 2.64692 11.1911 2.68197C12.1912 2.67351 13.2003 2.68197 14.2005 2.68197V2.83121H14.2957V2.26143H14.4076C14.4076 2.41853 14.3992 2.56777 14.4076 2.72547C14.4194 2.73654 14.4349 2.74278 14.451 2.74299C14.451 2.76051 14.4593 2.79556 14.4593 2.81308C14.4938 2.77804 14.5367 2.75145 14.589 2.76897C14.5974 2.79556 14.6063 2.82154 14.6146 2.85659C14.5801 2.89163 14.5629 2.93513 14.5801 2.98831C14.8562 2.99676 15.1323 2.98831 15.4167 2.98831C15.4429 2.95326 15.4857 2.93574 15.5291 2.91822C15.5476 2.92788 15.565 2.93964 15.5809 2.95326H15.9855C16.0011 3.01913 16.0042 3.08744 15.9944 3.15447H15.5803C15.5649 3.17128 15.5475 3.1861 15.5285 3.19857C15.4857 3.17199 15.4512 3.15447 15.4083 3.12848H14.6581C14.5111 3.17199 14.3558 3.16353 14.2094 3.13694V3.3031H12.9754C12.9271 3.34653 12.8669 3.37394 12.8029 3.38165C12.8291 3.51337 12.6827 3.54842 12.6303 3.64509C12.5972 3.69454 12.5489 3.7315 12.4929 3.75023C12.4495 4.02152 12.5447 4.2759 12.6137 4.52967C12.5363 4.5472 12.4495 4.57318 12.3721 4.5907C12.3287 4.76592 12.2858 4.94961 12.2513 5.12483C12.2319 5.20328 12.1944 5.27594 12.142 5.33685C12.0895 5.39776 12.0236 5.4452 11.9497 5.47528C11.8462 5.59794 11.7081 5.72059 11.5439 5.72905C11.4838 5.74718 11.4404 5.70307 11.3975 5.66803C11.1821 5.68555 10.9834 5.58041 10.7936 5.4928C10.5872 5.39613 10.3974 5.27347 10.1986 5.16048C10.2165 5.28253 10.1558 5.38767 10.1124 5.4928C10.2076 5.53631 10.3367 5.57135 10.3884 5.67648C10.4229 5.75503 10.4575 5.84325 10.4575 5.93932C10.4491 6.25472 10.4146 6.57013 10.3974 6.88493C10.4057 7.11272 10.2938 7.34051 10.1385 7.50727C10.035 7.49821 9.94874 7.4541 9.85414 7.4106C9.81963 7.48915 9.74168 7.5677 9.78512 7.66437C9.81963 7.77857 9.81963 7.90123 9.87139 8.00636C10.1671 8.3177 10.4116 8.67534 10.5955 9.06556C10.7764 9.44259 10.9144 9.83655 11.0614 10.2305C11.0869 10.2305 11.1387 10.2214 11.1649 10.2214C11.1994 10.3356 11.1649 10.4667 11.2339 10.5719C11.294 10.6686 11.2768 10.7821 11.2768 10.8957C11.2595 11.1586 11.2422 11.4214 11.2167 11.6843C11.1988 11.8679 11.156 12.0522 11.1304 12.2359C11.1387 12.3761 11.1994 12.5163 11.1905 12.6564C11.1821 12.7876 11.1821 12.9277 11.0786 13.0238C11.0869 13.3217 11.0096 13.6196 11.1131 13.9084C11.2512 14.1017 11.4065 14.2848 11.5701 14.4516C11.751 14.5392 11.9669 14.5567 12.1222 14.7144C12.1817 14.8111 12.1478 14.9241 12.1306 15.0292C11.7615 15.0818 11.387 15.0818 11.0179 15.0292C10.8716 14.9942 10.7335 14.9331 10.5872 14.9156C10.3884 14.9241 10.1558 15.0032 9.97432 14.8631C9.95766 14.6268 10.0439 14.399 10.0868 14.1712C10.104 14.0927 10.182 14.0401 10.173 13.961C10.1552 13.6891 10.1385 13.4093 10.1213 13.138C10.0868 13.1199 10.0261 13.103 10.035 13.0504C10.035 12.9187 9.99217 12.7876 9.95766 12.6649C9.89993 12.3294 9.8681 11.9898 9.86247 11.6492C9.85414 11.5525 9.91423 11.4824 9.98325 11.4214C10.0011 11.2728 10.0178 11.1151 10.0267 10.9658C10.0005 10.8873 9.94041 10.8257 9.9059 10.7556C9.75061 10.7737 9.5263 10.8081 9.4317 10.642C9.20739 10.3006 8.97415 9.95014 8.75044 9.60875C8.65524 9.59969 8.54338 9.60875 8.45711 9.54712C8.36191 9.44199 8.30182 9.30241 8.24113 9.17069C8.21554 9.27583 8.19829 9.38942 8.1376 9.47703C8.08584 9.56465 8.00016 9.62628 7.93947 9.70483C7.87937 9.845 7.82761 9.98518 7.77585 10.1254C7.71516 10.3006 7.62888 10.4758 7.61163 10.6686C7.60507 10.7615 7.58481 10.853 7.55154 10.9399C7.5081 11.0099 7.43075 11.0365 7.36174 11.071C7.30997 11.1852 7.27546 11.2988 7.19811 11.3954C7.14635 11.4565 7.06008 11.474 7.02557 11.5525C6.99106 11.6577 6.93929 11.7543 6.89586 11.8504C6.87861 11.9555 6.94762 12.0697 6.91371 12.1743C6.85302 12.4371 6.72331 12.6824 6.60313 12.9187C6.54244 13.0939 6.4996 13.2782 6.41273 13.4443C6.37882 13.5144 6.29254 13.532 6.22353 13.541C6.14618 13.7332 6.05931 13.9175 6.00814 14.1187C5.98496 14.3133 5.97899 14.5096 5.99029 14.7054C5.99029 14.793 6.04265 14.8631 6.07716 14.9416C6.11107 15.0467 6.08549 15.1519 6.06823 15.257C5.73207 15.3011 5.38697 15.3356 5.05914 15.231C5.02463 15.2044 5.03355 15.1609 5.02463 15.1259C4.99904 14.9682 4.98179 14.802 5.03355 14.6528C5.14541 14.2413 5.24061 13.8298 5.35246 13.4184C5.30963 13.3743 5.24894 13.3398 5.24894 13.2691C5.24061 13.1555 5.24894 13.0329 5.27512 12.9187C5.32688 12.7259 5.46432 12.5773 5.53334 12.393C5.55952 12.3145 5.55119 12.2359 5.55952 12.1574C5.55952 11.9731 5.66305 11.8244 5.7404 11.6667C5.81774 11.535 5.87843 11.3948 5.98196 11.2812C6.05098 11.2202 6.05098 11.1241 6.10274 11.045C6.15451 10.9483 6.24078 10.8698 6.24078 10.7556C6.25803 10.616 6.20627 10.4758 6.22293 10.3356C6.25803 9.92416 6.33598 9.52114 6.4044 9.10906C6.36989 9.06556 6.31813 9.02206 6.30087 8.96042C6.3098 8.91692 6.31872 8.88188 6.32705 8.83777L6.2497 8.70665C6.28362 8.65408 6.31813 8.59306 6.35264 8.54049C6.31813 8.51391 6.27529 8.47886 6.24078 8.45288C6.28362 8.32116 6.26636 8.12841 6.42166 8.06739C6.43951 8.07585 6.48234 8.08491 6.499 8.09337C6.47342 7.86618 6.47342 7.62933 6.44784 7.40154C6.39047 7.15791 6.37577 6.90593 6.4044 6.65713C6.49067 6.52602 6.6543 6.47345 6.80126 6.46499C6.61146 6.42088 6.42166 6.40336 6.24078 6.34234C6.23186 6.18463 6.25803 6.02693 6.28362 5.86923C6.36097 5.56289 6.32705 5.24749 6.36989 4.93269C6.41333 4.84447 6.52518 4.82695 6.61979 4.84447C6.73224 4.8626 6.8441 4.82695 6.95655 4.7919C6.95655 4.7484 6.96488 4.69523 6.95655 4.65173C6.88753 4.34539 6.90479 4.02998 6.95655 3.73271C7.02557 3.34721 7.18086 2.97078 7.46526 2.69949C7.65506 2.5152 7.93114 2.42759 8.18936 2.43665C8.27564 2.43665 8.3274 2.52426 8.39642 2.57683C8.43093 2.54179 8.46544 2.50674 8.49162 2.4717C8.44818 2.32245 8.37916 2.16475 8.38809 2.00705C8.40534 1.6566 8.5172 1.2977 8.77602 1.06145M11.4666 3.53996C11.4838 3.55748 11.4838 3.55748 11.4666 3.53996ZM11.5873 3.55748C11.5957 3.61851 11.6129 3.68014 11.5784 3.73271C11.5356 3.75023 11.4832 3.75023 11.4404 3.77621C11.5612 3.77621 11.6819 3.78527 11.8033 3.77621C11.8979 3.75023 11.8628 3.62757 11.8628 3.55748C11.8033 3.48739 11.6736 3.5309 11.5873 3.55748ZM11.2857 3.92545C11.3719 4.02152 11.4148 4.17016 11.4921 4.26684C11.6046 4.11759 11.6909 3.95989 11.82 3.82878C11.6653 3.81971 11.5094 3.83784 11.3547 3.81971C11.3285 3.85476 11.3113 3.89041 11.2857 3.92545Z" fill="white"/>
<path d="M5.78792 6.44813C5.72579 6.43677 5.71076 6.40028 5.69027 6.35186C5.67417 6.31381 5.64729 6.28087 5.62747 6.24437C5.61443 6.22038 5.59939 6.19496 5.5954 6.16841C5.56573 5.96891 5.48723 5.78815 5.39796 5.61464C5.32984 5.48216 5.28766 5.34641 5.28607 5.19732C5.2854 5.13783 5.27622 5.08344 5.25121 5.03389L5.24988 5.03162C5.24296 5.01813 5.23511 5.00506 5.22553 4.99228L5.18561 4.92612C5.12468 4.85129 5.09181 4.84575 5.00813 4.88977C4.96515 4.91234 4.92098 4.93364 4.87535 4.94855C4.72487 4.99768 4.57652 5.05661 4.41473 5.05164C4.29818 5.04809 4.2286 5.11582 4.20731 5.26051C4.15622 5.20428 4.11418 5.15458 4.06867 5.109C4.01293 5.05306 4.04273 5.01642 4.08411 4.97127C4.10579 4.94756 4.12775 4.90155 4.1207 4.874C4.07852 4.70915 4.02091 4.5514 3.89278 4.4361C3.81508 4.36624 3.73605 4.29751 3.66327 4.22197C3.6054 4.16205 3.54047 4.12656 3.4629 4.10611C3.40849 4.09177 3.34822 4.07203 3.30923 4.03327C3.28409 4.00828 3.26759 3.99479 3.23819 4.00189C3.19428 4.01254 3.1517 4.03554 3.10767 4.03852C2.91847 4.05102 2.80365 4.18676 2.68723 4.31995C2.67353 4.33557 2.6714 4.36255 2.66129 4.39194C2.66129 4.39194 2.65357 4.41537 2.68311 4.45995C2.67034 4.47245 2.65916 4.48778 2.64452 4.49673C2.59091 4.52953 2.54461 4.56489 2.5325 4.63787C2.52212 4.70035 2.48141 4.76254 2.55325 4.81437C2.5615 4.82033 2.55804 4.84546 2.55924 4.86179C2.5647 4.94017 2.5945 4.99981 2.6557 5.04979C2.74458 5.12249 2.82693 5.20456 2.90889 5.28635C2.97648 5.35394 3.03555 5.43161 3.10567 5.49579C3.14133 5.52859 3.18936 5.56295 3.24417 5.52064C3.2487 5.52646 3.25322 5.53242 3.25761 5.53825C3.21969 5.57871 3.18191 5.61932 3.12909 5.67584C3.10793 5.54023 3.02518 5.56679 2.95479 5.56622C2.80405 5.56494 2.65317 5.56593 2.50243 5.5648C2.42273 5.56423 2.38042 5.52689 2.35754 5.44666C2.3453 5.40392 2.32853 5.3626 2.31297 5.321C2.28636 5.25014 2.23261 5.24105 2.17101 5.2517C2.04155 5.274 1.91263 5.29941 1.78277 5.31858C1.64041 5.3396 1.64014 5.33704 1.61234 5.48613C1.3956 5.48613 1.17873 5.48514 0.96173 5.48684C0.909974 5.48727 0.879772 5.4681 0.86354 5.41386C0.849437 5.367 0.828548 5.32199 0.806196 5.27883C0.797415 5.26193 0.77626 5.25227 0.760694 5.23935C0.752711 5.25852 0.739539 5.27726 0.737543 5.29714C0.726766 5.39881 0.718916 5.5009 0.710401 5.59944C0.639487 5.61194 0.579083 5.63239 0.519078 5.63111C0.367403 5.62798 0.215994 5.61279 0.0641858 5.6074C0.00591069 5.60527 -0.0177719 5.66164 0.0145588 5.71261C0.0476879 5.76487 0.0919929 5.79554 0.153195 5.7927C0.272673 5.78716 0.39215 5.77835 0.511627 5.77694C0.594916 5.77594 0.678603 5.7819 0.761492 5.79142C0.800342 5.79582 0.845978 5.80576 0.873785 5.83132C0.927935 5.8813 0.984481 5.90615 1.05513 5.90104C1.12591 5.89592 1.19363 5.8945 1.21279 5.99575C1.21758 6.02116 1.24659 6.04729 1.2704 6.06163C1.3356 6.10068 1.40345 6.13504 1.47144 6.16855C1.50417 6.18474 1.61713 6.33667 1.61713 6.37359C1.61713 6.38992 1.613 6.40639 1.60967 6.42243C1.59491 6.49371 1.57828 6.56471 1.56537 6.63656C1.56164 6.65729 1.55978 6.69123 1.57069 6.70031C1.66489 6.77841 1.76987 6.82811 1.89227 6.83251C1.94309 6.83435 1.99538 6.84316 2.04381 6.85963C2.0941 6.87667 2.14267 6.90279 2.1879 6.93204C2.25709 6.97663 2.32521 7.02391 2.38947 7.07631C2.50536 7.17088 2.61672 7.27183 2.73234 7.36668C2.80059 7.42263 2.87869 7.43413 2.95812 7.39451C3.02185 7.36285 3.04873 7.38954 3.06842 7.45429C3.11272 7.59998 3.17592 7.73601 3.27025 7.85329C3.31695 7.91123 3.36538 7.9676 3.41035 8.02695C3.42166 8.04186 3.43031 8.06728 3.42711 8.08517C3.41301 8.16468 3.39651 8.24406 3.37656 8.32215C3.35833 8.39329 3.32906 8.39599 3.26759 8.35921C3.23233 8.3382 3.18364 8.3328 3.14279 8.33777C3.12669 8.33976 3.10886 8.38733 3.10341 8.41658C3.08106 8.53514 3.0901 8.66222 3.01307 8.76503C3.00415 8.77695 3.00136 8.79541 2.9991 8.81146C2.97715 8.9695 2.9516 9.12725 2.9363 9.286C2.92965 9.35501 2.90557 9.43424 2.98446 9.48763C3.02691 9.51631 3.01746 9.64467 2.97502 9.67477C2.88135 9.74108 2.87363 9.84261 2.88082 9.94541C2.8872 10.0364 2.90942 10.1262 2.91847 10.2172C2.9339 10.3735 2.983 10.5064 3.12257 10.5815C3.16381 10.6038 3.20719 10.6223 3.25096 10.6386C3.31056 10.6611 3.35341 10.6973 3.37536 10.7641C3.39478 10.8235 3.42246 10.8797 3.44774 10.9368C3.48659 11.0247 3.54712 11.0987 3.55577 11.2053C3.56482 11.3169 3.56682 11.3324 3.46769 11.3567C3.46131 11.3582 3.45412 11.3567 3.44787 11.3585C3.37336 11.3801 3.30152 11.4021 3.25601 11.4805C3.22062 11.5414 3.21583 11.5983 3.27265 11.6344C3.36285 11.6918 3.45585 11.7527 3.55551 11.7831C3.68762 11.8235 3.79566 12.072 3.70372 12.1971C3.62336 12.3063 3.54233 12.4086 3.42791 12.4739C3.30378 12.5446 3.2636 12.6622 3.2471 12.7996C3.26027 12.8061 3.27132 12.8094 3.27983 12.8161C3.44854 12.9504 3.64438 12.9927 3.84808 12.9998C3.93775 13.0029 4.02477 12.967 4.06788 12.8786C4.10486 12.8026 4.15183 12.7658 4.229 12.7518C4.32226 12.7349 4.38413 12.6728 4.38466 12.6024C4.38613 12.3954 4.38839 12.188 4.38027 11.9813C4.37735 11.9068 4.37003 11.8414 4.4315 11.7896C4.44414 11.779 4.45531 11.7575 4.45598 11.7406C4.4609 11.5972 4.4762 11.4522 4.4629 11.3105C4.4452 11.1231 4.40662 10.9377 4.37295 10.7522C4.34515 10.5991 4.3216 10.4438 4.27636 10.2963C4.25055 10.2119 4.21875 10.1368 4.23152 10.044C4.2451 9.94499 4.27237 9.86022 4.33677 9.78297C4.40515 9.70104 4.46409 9.60832 4.51678 9.51375C4.58131 9.39803 4.634 9.27492 4.694 9.15622C4.70837 9.12768 4.72899 9.10169 4.75055 9.07855C4.86377 8.95629 4.98059 8.83773 5.09062 8.71249C5.11842 8.68083 5.13825 8.62957 5.14078 8.58597C5.14889 8.44441 5.14956 8.3027 5.10871 8.16397C5.08756 8.09212 5.0841 8.01431 5.06281 7.94246C5.01717 7.7884 5.11962 7.62213 5.25906 7.57201C5.40328 7.52018 5.44479 7.44776 5.43521 7.28916C5.43162 7.2308 5.45105 7.197 5.49841 7.17059C5.54937 7.14234 5.60432 7.11422 5.6433 7.0712C5.70424 7.00375 5.77116 6.96626 5.85791 6.94923C5.93015 6.93488 5.98603 6.87724 5.99907 6.79587C6.01291 6.70926 5.86882 6.46191 5.78846 6.44728L5.78792 6.44813ZM2.0502 5.485C1.96398 5.48315 1.8779 5.47449 1.79169 5.4681C1.79049 5.45873 1.78916 5.44936 1.78796 5.43999C1.81364 5.43218 1.83905 5.42124 1.86526 5.41713C1.92407 5.40804 1.98327 5.39867 2.04248 5.39781C2.05978 5.39753 2.07734 5.4255 2.0949 5.44055C2.08 5.45617 2.06497 5.48542 2.05033 5.48514L2.0502 5.485ZM2.52199 5.92432C2.54288 5.93128 2.55764 5.9699 2.56869 5.99759C2.58146 6.02926 2.58705 6.06404 2.60075 6.11601C2.5462 6.06404 2.49564 6.01591 2.43072 5.95414C2.4677 5.94065 2.49937 5.91694 2.52199 5.92447V5.92432Z" fill="white"/>
</g>
<defs>
<clipPath id="clip0_12781_122356">
<rect width="16" height="16" fill="white"/>
</clipPath>
</defs>
</svg>
