<svg width="16" height="16" viewBox="0 0 16 16" fill="none" xmlns="http://www.w3.org/2000/svg">
<g id="Hicon / Linear / Home 2" clip-path="url(#clip0_4303_9221)">
<g id="Vector">
<mask id="path-1-inside-1_4303_9221" fill="white">
<path d="M6.46327 0.289496C6.61971 0.159637 6.80826 0.0694101 7.01136 0.027211C7.21446 -0.0149881 7.42552 -0.00778828 7.6249 0.0481406C7.77819 0.0961449 7.91039 0.183486 8.05313 0.270161C8.16564 0.3375 8.29783 0.366836 8.39979 0.444176C8.45042 0.482846 8.40964 0.550852 8.40964 0.598857C8.54254 0.898884 8.61356 1.22691 8.50105 1.54561C8.40964 1.65228 8.2465 1.68095 8.11431 1.72962C8.09321 1.86497 8.14454 1.98965 8.16493 2.12566C8.1347 2.145 8.11431 2.16433 8.08337 2.18367C8.27744 2.17366 8.47081 2.13499 8.66489 2.09699C8.73591 2.02899 8.84771 2.06766 8.93912 2.05765C8.94967 1.92231 9.001 1.79696 9.001 1.66162C9.02918 1.65979 9.0568 1.65325 9.08257 1.64228C9.09241 1.73896 9.08257 1.83563 9.1128 1.93231C9.16413 1.97098 9.2457 1.95164 9.30688 1.96098C9.30688 1.99965 9.30688 2.03832 9.31672 2.07699C10.4987 2.06766 11.6913 2.07699 12.8733 2.07699V2.24167H12.9858V1.61295H13.118C13.118 1.7863 13.1082 1.95098 13.118 2.12499C13.1321 2.13721 13.1503 2.14409 13.1694 2.14433C13.1694 2.16366 13.1792 2.20233 13.1792 2.22167C13.22 2.183 13.2706 2.15366 13.3325 2.173C13.3423 2.20233 13.3529 2.231 13.3627 2.26967C13.322 2.30834 13.3016 2.35635 13.322 2.41502C13.6482 2.42435 13.9745 2.41502 14.3106 2.41502C14.3415 2.37635 14.3922 2.35701 14.4435 2.33768C14.4654 2.34834 14.4859 2.36132 14.5047 2.37635H14.9828C15.0013 2.44903 15.0049 2.52441 14.9934 2.59837H14.504C14.4858 2.61693 14.4652 2.63328 14.4428 2.64704C14.3922 2.6177 14.3514 2.59837 14.3008 2.5697H13.4141C13.2404 2.6177 13.0569 2.60837 12.8839 2.57903V2.76238H11.4255C11.3684 2.8103 11.2973 2.84054 11.2216 2.84906C11.2525 2.99441 11.0796 3.03308 11.0177 3.13975C10.9785 3.19431 10.9214 3.23509 10.8553 3.25576C10.8039 3.55512 10.9164 3.83581 10.998 4.11584C10.9066 4.13517 10.8039 4.16384 10.7125 4.18318C10.6612 4.37653 10.6105 4.57921 10.5698 4.77256C10.5468 4.85913 10.5025 4.9393 10.4405 5.00652C10.3785 5.07373 10.3007 5.12607 10.2133 5.15927C10.0909 5.29461 9.92777 5.42996 9.7337 5.43929C9.66268 5.45929 9.61135 5.41062 9.56072 5.37195C9.30617 5.39129 9.07132 5.27528 8.84701 5.1786C8.60301 5.07193 8.3787 4.93658 8.14384 4.8119C8.16494 4.94658 8.09321 5.06259 8.04188 5.1786C8.15439 5.22661 8.30697 5.26528 8.36815 5.38129C8.40893 5.46796 8.44972 5.5653 8.44972 5.67131C8.43987 6.01934 8.39909 6.36737 8.3787 6.71474C8.38854 6.96609 8.25635 7.21745 8.07282 7.40147C7.95047 7.39147 7.84851 7.3428 7.73671 7.29479C7.69592 7.38147 7.60381 7.46814 7.65514 7.57482C7.69592 7.70083 7.69592 7.83617 7.7571 7.95218C8.10662 8.29573 8.39556 8.69036 8.61285 9.12096C8.82661 9.53699 8.98975 9.9717 9.16343 10.4064C9.19367 10.4064 9.25484 10.3964 9.28578 10.3964C9.32657 10.5224 9.28578 10.6671 9.36735 10.7831C9.43837 10.8898 9.41798 11.0151 9.41798 11.1405C9.39759 11.4305 9.37719 11.7205 9.34696 12.0105C9.32586 12.2132 9.27523 12.4166 9.245 12.6193C9.25484 12.7739 9.32657 12.9286 9.31602 13.0833C9.30617 13.228 9.30617 13.3827 9.18382 13.4887C9.19367 13.8174 9.10226 14.1461 9.22461 14.4648C9.38774 14.6781 9.57127 14.8801 9.76464 15.0642C9.9784 15.1608 10.2337 15.1802 10.4172 15.3542C10.4875 15.4609 10.4474 15.5855 10.427 15.7015C9.99085 15.7595 9.54827 15.7595 9.1121 15.7015C8.93912 15.6629 8.77599 15.5955 8.60301 15.5762C8.36815 15.5855 8.09321 15.6729 7.87875 15.5182C7.85906 15.2575 7.96102 15.0062 8.01164 14.7548C8.03204 14.6681 8.12415 14.6101 8.1136 14.5228C8.09251 14.2227 8.07282 13.9141 8.05243 13.6147C8.01164 13.5947 7.93992 13.576 7.95047 13.518C7.95047 13.3727 7.89984 13.228 7.85906 13.0926C7.79082 12.7224 7.75321 12.3477 7.74655 11.9719C7.73671 11.8652 7.80773 11.7879 7.88929 11.7205C7.91039 11.5565 7.93008 11.3825 7.94063 11.2178C7.90969 11.1311 7.83867 11.0631 7.79788 10.9858C7.61436 11.0058 7.34926 11.0438 7.23746 10.8604C6.97236 10.4837 6.69672 10.097 6.43233 9.72034C6.31983 9.71034 6.18763 9.72034 6.08567 9.65234C5.97316 9.53633 5.90215 9.38231 5.83042 9.23697C5.80019 9.35298 5.77979 9.47832 5.70807 9.575C5.6469 9.67167 5.54564 9.73968 5.47392 9.82635C5.4029 9.98103 5.34172 10.1357 5.28055 10.2904C5.20882 10.4837 5.10686 10.6771 5.08647 10.8898C5.07871 10.9924 5.05478 11.0933 5.01545 11.1891C4.96412 11.2665 4.87271 11.2958 4.79114 11.3338C4.72997 11.4598 4.68918 11.5852 4.59777 11.6919C4.5366 11.7592 4.43464 11.7785 4.39385 11.8652C4.35307 11.9812 4.29189 12.0879 4.24056 12.1939C4.22017 12.3099 4.30174 12.4359 4.26166 12.5513C4.18993 12.8413 4.03664 13.112 3.8946 13.3727C3.82288 13.566 3.77225 13.7694 3.66959 13.9527C3.62951 14.0301 3.52755 14.0494 3.44598 14.0594C3.35457 14.2714 3.25191 14.4748 3.19144 14.6968C3.16405 14.9116 3.15699 15.1282 3.17034 15.3442C3.17034 15.4409 3.23222 15.5182 3.27301 15.6049C3.31309 15.7209 3.28285 15.8369 3.26246 15.9529C2.86517 16.0016 2.45733 16.0396 2.06989 15.9242C2.0291 15.8949 2.03965 15.8469 2.0291 15.8082C1.99887 15.6342 1.97848 15.4509 2.03965 15.2862C2.17185 14.8321 2.28435 14.3781 2.41655 13.9241C2.36592 13.8754 2.2942 13.8374 2.2942 13.7594C2.28435 13.634 2.2942 13.4987 2.32514 13.3727C2.38631 13.16 2.54874 12.996 2.63031 12.7926C2.66125 12.7059 2.65141 12.6193 2.66125 12.5326C2.66125 12.3292 2.7836 12.1652 2.87501 11.9912C2.96642 11.8459 3.03815 11.6912 3.1605 11.5658C3.24207 11.4985 3.24207 11.3925 3.30324 11.3052C3.36442 11.1985 3.46638 11.1118 3.46638 10.9858C3.48677 10.8318 3.42559 10.6771 3.44528 10.5224C3.48677 10.0684 3.57888 9.62367 3.65975 9.16896C3.61896 9.12096 3.55779 9.07295 3.5374 9.00494C3.54794 8.95694 3.55849 8.91827 3.56834 8.8696L3.47692 8.72492C3.517 8.66691 3.55779 8.59958 3.59857 8.54157C3.55779 8.51223 3.50716 8.47356 3.46638 8.44489C3.517 8.29955 3.49661 8.08686 3.68014 8.01952C3.70123 8.02886 3.75186 8.03886 3.77155 8.04819C3.74131 7.7975 3.74131 7.53615 3.71108 7.28479C3.64329 7.01596 3.62591 6.73792 3.65975 6.46338C3.76171 6.3187 3.95508 6.2607 4.12876 6.25136C3.90445 6.20269 3.68014 6.18336 3.46638 6.11602C3.45583 5.942 3.48677 5.76799 3.517 5.59397C3.60842 5.25594 3.56834 4.90791 3.61896 4.56055C3.67029 4.4632 3.80249 4.44387 3.91429 4.4632C4.04719 4.48321 4.17939 4.44387 4.31229 4.4052C4.31229 4.35719 4.32213 4.29852 4.31229 4.25052C4.23072 3.91249 4.25111 3.56446 4.31229 3.23643C4.39385 2.81106 4.57738 2.39568 4.91349 2.09632C5.1378 1.89297 5.46407 1.7963 5.76925 1.8063C5.87121 1.8063 5.93238 1.90297 6.01395 1.96098C6.05473 1.92231 6.09552 1.88364 6.12645 1.84497C6.07512 1.68029 5.99356 1.50627 6.0041 1.33226C6.0245 0.945554 6.15669 0.549519 6.46257 0.288829M9.64229 3.02374C9.66268 3.04308 9.66268 3.04308 9.64229 3.02374ZM9.78503 3.04308C9.79487 3.11042 9.81527 3.17842 9.77448 3.23643C9.72386 3.25576 9.66198 3.25576 9.61135 3.28443C9.75409 3.28443 9.89683 3.29443 10.0403 3.28443C10.1521 3.25576 10.1106 3.12042 10.1106 3.04308C10.0403 2.96574 9.88699 3.01374 9.78503 3.04308ZM9.42853 3.44911C9.53048 3.55512 9.58111 3.71914 9.67252 3.82581C9.80542 3.66113 9.90738 3.48712 10.06 3.34244C9.87715 3.33244 9.69292 3.35244 9.51009 3.33244C9.47915 3.37111 9.45876 3.41044 9.42853 3.44911Z"/>
</mask>
<path d="M6.46327 0.289496C6.61971 0.159637 6.80826 0.0694101 7.01136 0.027211C7.21446 -0.0149881 7.42552 -0.00778828 7.6249 0.0481406C7.77819 0.0961449 7.91039 0.183486 8.05313 0.270161C8.16564 0.3375 8.29783 0.366836 8.39979 0.444176C8.45042 0.482846 8.40964 0.550852 8.40964 0.598857C8.54254 0.898884 8.61356 1.22691 8.50105 1.54561C8.40964 1.65228 8.2465 1.68095 8.11431 1.72962C8.09321 1.86497 8.14454 1.98965 8.16493 2.12566C8.1347 2.145 8.11431 2.16433 8.08337 2.18367C8.27744 2.17366 8.47081 2.13499 8.66489 2.09699C8.73591 2.02899 8.84771 2.06766 8.93912 2.05765C8.94967 1.92231 9.001 1.79696 9.001 1.66162C9.02918 1.65979 9.0568 1.65325 9.08257 1.64228C9.09241 1.73896 9.08257 1.83563 9.1128 1.93231C9.16413 1.97098 9.2457 1.95164 9.30688 1.96098C9.30688 1.99965 9.30688 2.03832 9.31672 2.07699C10.4987 2.06766 11.6913 2.07699 12.8733 2.07699V2.24167H12.9858V1.61295H13.118C13.118 1.7863 13.1082 1.95098 13.118 2.12499C13.1321 2.13721 13.1503 2.14409 13.1694 2.14433C13.1694 2.16366 13.1792 2.20233 13.1792 2.22167C13.22 2.183 13.2706 2.15366 13.3325 2.173C13.3423 2.20233 13.3529 2.231 13.3627 2.26967C13.322 2.30834 13.3016 2.35635 13.322 2.41502C13.6482 2.42435 13.9745 2.41502 14.3106 2.41502C14.3415 2.37635 14.3922 2.35701 14.4435 2.33768C14.4654 2.34834 14.4859 2.36132 14.5047 2.37635H14.9828C15.0013 2.44903 15.0049 2.52441 14.9934 2.59837H14.504C14.4858 2.61693 14.4652 2.63328 14.4428 2.64704C14.3922 2.6177 14.3514 2.59837 14.3008 2.5697H13.4141C13.2404 2.6177 13.0569 2.60837 12.8839 2.57903V2.76238H11.4255C11.3684 2.8103 11.2973 2.84054 11.2216 2.84906C11.2525 2.99441 11.0796 3.03308 11.0177 3.13975C10.9785 3.19431 10.9214 3.23509 10.8553 3.25576C10.8039 3.55512 10.9164 3.83581 10.998 4.11584C10.9066 4.13517 10.8039 4.16384 10.7125 4.18318C10.6612 4.37653 10.6105 4.57921 10.5698 4.77256C10.5468 4.85913 10.5025 4.9393 10.4405 5.00652C10.3785 5.07373 10.3007 5.12607 10.2133 5.15927C10.0909 5.29461 9.92777 5.42996 9.7337 5.43929C9.66268 5.45929 9.61135 5.41062 9.56072 5.37195C9.30617 5.39129 9.07132 5.27528 8.84701 5.1786C8.60301 5.07193 8.3787 4.93658 8.14384 4.8119C8.16494 4.94658 8.09321 5.06259 8.04188 5.1786C8.15439 5.22661 8.30697 5.26528 8.36815 5.38129C8.40893 5.46796 8.44972 5.5653 8.44972 5.67131C8.43987 6.01934 8.39909 6.36737 8.3787 6.71474C8.38854 6.96609 8.25635 7.21745 8.07282 7.40147C7.95047 7.39147 7.84851 7.3428 7.73671 7.29479C7.69592 7.38147 7.60381 7.46814 7.65514 7.57482C7.69592 7.70083 7.69592 7.83617 7.7571 7.95218C8.10662 8.29573 8.39556 8.69036 8.61285 9.12096C8.82661 9.53699 8.98975 9.9717 9.16343 10.4064C9.19367 10.4064 9.25484 10.3964 9.28578 10.3964C9.32657 10.5224 9.28578 10.6671 9.36735 10.7831C9.43837 10.8898 9.41798 11.0151 9.41798 11.1405C9.39759 11.4305 9.37719 11.7205 9.34696 12.0105C9.32586 12.2132 9.27523 12.4166 9.245 12.6193C9.25484 12.7739 9.32657 12.9286 9.31602 13.0833C9.30617 13.228 9.30617 13.3827 9.18382 13.4887C9.19367 13.8174 9.10226 14.1461 9.22461 14.4648C9.38774 14.6781 9.57127 14.8801 9.76464 15.0642C9.9784 15.1608 10.2337 15.1802 10.4172 15.3542C10.4875 15.4609 10.4474 15.5855 10.427 15.7015C9.99085 15.7595 9.54827 15.7595 9.1121 15.7015C8.93912 15.6629 8.77599 15.5955 8.60301 15.5762C8.36815 15.5855 8.09321 15.6729 7.87875 15.5182C7.85906 15.2575 7.96102 15.0062 8.01164 14.7548C8.03204 14.6681 8.12415 14.6101 8.1136 14.5228C8.09251 14.2227 8.07282 13.9141 8.05243 13.6147C8.01164 13.5947 7.93992 13.576 7.95047 13.518C7.95047 13.3727 7.89984 13.228 7.85906 13.0926C7.79082 12.7224 7.75321 12.3477 7.74655 11.9719C7.73671 11.8652 7.80773 11.7879 7.88929 11.7205C7.91039 11.5565 7.93008 11.3825 7.94063 11.2178C7.90969 11.1311 7.83867 11.0631 7.79788 10.9858C7.61436 11.0058 7.34926 11.0438 7.23746 10.8604C6.97236 10.4837 6.69672 10.097 6.43233 9.72034C6.31983 9.71034 6.18763 9.72034 6.08567 9.65234C5.97316 9.53633 5.90215 9.38231 5.83042 9.23697C5.80019 9.35298 5.77979 9.47832 5.70807 9.575C5.6469 9.67167 5.54564 9.73968 5.47392 9.82635C5.4029 9.98103 5.34172 10.1357 5.28055 10.2904C5.20882 10.4837 5.10686 10.6771 5.08647 10.8898C5.07871 10.9924 5.05478 11.0933 5.01545 11.1891C4.96412 11.2665 4.87271 11.2958 4.79114 11.3338C4.72997 11.4598 4.68918 11.5852 4.59777 11.6919C4.5366 11.7592 4.43464 11.7785 4.39385 11.8652C4.35307 11.9812 4.29189 12.0879 4.24056 12.1939C4.22017 12.3099 4.30174 12.4359 4.26166 12.5513C4.18993 12.8413 4.03664 13.112 3.8946 13.3727C3.82288 13.566 3.77225 13.7694 3.66959 13.9527C3.62951 14.0301 3.52755 14.0494 3.44598 14.0594C3.35457 14.2714 3.25191 14.4748 3.19144 14.6968C3.16405 14.9116 3.15699 15.1282 3.17034 15.3442C3.17034 15.4409 3.23222 15.5182 3.27301 15.6049C3.31309 15.7209 3.28285 15.8369 3.26246 15.9529C2.86517 16.0016 2.45733 16.0396 2.06989 15.9242C2.0291 15.8949 2.03965 15.8469 2.0291 15.8082C1.99887 15.6342 1.97848 15.4509 2.03965 15.2862C2.17185 14.8321 2.28435 14.3781 2.41655 13.9241C2.36592 13.8754 2.2942 13.8374 2.2942 13.7594C2.28435 13.634 2.2942 13.4987 2.32514 13.3727C2.38631 13.16 2.54874 12.996 2.63031 12.7926C2.66125 12.7059 2.65141 12.6193 2.66125 12.5326C2.66125 12.3292 2.7836 12.1652 2.87501 11.9912C2.96642 11.8459 3.03815 11.6912 3.1605 11.5658C3.24207 11.4985 3.24207 11.3925 3.30324 11.3052C3.36442 11.1985 3.46638 11.1118 3.46638 10.9858C3.48677 10.8318 3.42559 10.6771 3.44528 10.5224C3.48677 10.0684 3.57888 9.62367 3.65975 9.16896C3.61896 9.12096 3.55779 9.07295 3.5374 9.00494C3.54794 8.95694 3.55849 8.91827 3.56834 8.8696L3.47692 8.72492C3.517 8.66691 3.55779 8.59958 3.59857 8.54157C3.55779 8.51223 3.50716 8.47356 3.46638 8.44489C3.517 8.29955 3.49661 8.08686 3.68014 8.01952C3.70123 8.02886 3.75186 8.03886 3.77155 8.04819C3.74131 7.7975 3.74131 7.53615 3.71108 7.28479C3.64329 7.01596 3.62591 6.73792 3.65975 6.46338C3.76171 6.3187 3.95508 6.2607 4.12876 6.25136C3.90445 6.20269 3.68014 6.18336 3.46638 6.11602C3.45583 5.942 3.48677 5.76799 3.517 5.59397C3.60842 5.25594 3.56834 4.90791 3.61896 4.56055C3.67029 4.4632 3.80249 4.44387 3.91429 4.4632C4.04719 4.48321 4.17939 4.44387 4.31229 4.4052C4.31229 4.35719 4.32213 4.29852 4.31229 4.25052C4.23072 3.91249 4.25111 3.56446 4.31229 3.23643C4.39385 2.81106 4.57738 2.39568 4.91349 2.09632C5.1378 1.89297 5.46407 1.7963 5.76925 1.8063C5.87121 1.8063 5.93238 1.90297 6.01395 1.96098C6.05473 1.92231 6.09552 1.88364 6.12645 1.84497C6.07512 1.68029 5.99356 1.50627 6.0041 1.33226C6.0245 0.945554 6.15669 0.549519 6.46257 0.288829M9.64229 3.02374C9.66268 3.04308 9.66268 3.04308 9.64229 3.02374ZM9.78503 3.04308C9.79487 3.11042 9.81527 3.17842 9.77448 3.23643C9.72386 3.25576 9.66198 3.25576 9.61135 3.28443C9.75409 3.28443 9.89683 3.29443 10.0403 3.28443C10.1521 3.25576 10.1106 3.12042 10.1106 3.04308C10.0403 2.96574 9.88699 3.01374 9.78503 3.04308ZM9.42853 3.44911C9.53048 3.55512 9.58111 3.71914 9.67252 3.82581C9.80542 3.66113 9.90738 3.48712 10.06 3.34244C9.87715 3.33244 9.69292 3.35244 9.51009 3.33244C9.47915 3.37111 9.45876 3.41044 9.42853 3.44911Z" fill="white"/>
<path d="M7.6249 0.0481406L7.92375 -0.90616L7.90944 -0.910643L7.89499 -0.914695L7.6249 0.0481406ZM8.05313 0.270161L7.5341 1.12494L7.53956 1.12821L8.05313 0.270161ZM8.39979 0.444176L9.0068 -0.35053L9.00414 -0.352545L8.39979 0.444176ZM8.40964 0.598857H7.40964V0.810421L7.49532 1.00386L8.40964 0.598857ZM8.50105 1.54561L9.26039 2.1963L9.38187 2.05454L9.44402 1.8785L8.50105 1.54561ZM8.11431 1.72962L7.7688 0.791207L7.21682 0.994434L7.12624 1.57562L8.11431 1.72962ZM8.16493 2.12566L8.70367 2.96814L9.25004 2.61875L9.15388 1.97739L8.16493 2.12566ZM8.08337 2.18367L7.55341 1.33564L4.28057 3.38096L8.13483 3.18234L8.08337 2.18367ZM8.66489 2.09699L8.85706 3.07835L9.14476 3.02202L9.3565 2.81926L8.66489 2.09699ZM8.93912 2.05765L9.04788 3.05172L9.87171 2.96159L9.9361 2.13535L8.93912 2.05765ZM9.001 1.66162L8.93635 0.663711L8.001 0.724309V1.66162H9.001ZM9.08257 1.64228L10.0774 1.54098L9.93994 0.190829L8.69111 0.722087L9.08257 1.64228ZM9.1128 1.93231L8.15839 2.23081L8.25435 2.53761L8.51109 2.73102L9.1128 1.93231ZM9.30688 1.96098H10.3069V1.10199L9.45771 0.97242L9.30688 1.96098ZM9.31672 2.07699L8.34763 2.32369L8.54097 3.08315L9.32462 3.07696L9.31672 2.07699ZM12.8733 2.07699H13.8733V1.07699H12.8733V2.07699ZM12.8733 2.24167H11.8733V3.24167H12.8733V2.24167ZM12.9858 2.24167V3.24167H13.9858V2.24167H12.9858ZM12.9858 1.61295V0.612948H11.9858V1.61295H12.9858ZM13.118 1.61295H14.118V0.612948H13.118V1.61295ZM13.118 2.12499L12.1196 2.18147L12.1434 2.60211L12.4611 2.8789L13.118 2.12499ZM13.1694 2.14433L14.1694 2.14433L14.1694 1.15662L13.1817 1.14441L13.1694 2.14433ZM13.1792 2.22167H12.1792V4.5479L13.8673 2.94733L13.1792 2.22167ZM13.3325 2.173L14.2805 1.85486L14.1181 1.37079L13.6308 1.21851L13.3325 2.173ZM13.3627 2.26967L14.0508 2.99533L14.4766 2.5916L14.3318 2.02297L13.3627 2.26967ZM13.322 2.41502L12.3774 2.74331L12.6038 3.39488L13.2934 3.41461L13.322 2.41502ZM14.3106 2.41502V3.41502H14.7912L15.0914 3.03975L14.3106 2.41502ZM14.4435 2.33768L14.8819 1.43888L14.4944 1.24991L14.091 1.40187L14.4435 2.33768ZM14.5047 2.37635L13.8799 3.15717L14.1539 3.37635H14.5047V2.37635ZM14.9828 2.37635L15.9519 2.12961L15.7601 1.37635H14.9828V2.37635ZM14.9934 2.59837V3.59837H15.8495L15.9814 2.75251L14.9934 2.59837ZM14.504 2.59837V1.59837H14.084L13.7899 1.8983L14.504 2.59837ZM14.4428 2.64704L13.9414 3.51228L14.4575 3.81129L14.9658 3.49938L14.4428 2.64704ZM14.3008 2.5697L14.7935 1.69953L14.5642 1.5697H14.3008V2.5697ZM13.4141 2.5697V1.5697H13.2784L13.1477 1.60584L13.4141 2.5697ZM12.8839 2.57903L13.0511 1.59311L11.8839 1.39516V2.57903H12.8839ZM12.8839 2.76238V3.76238H13.8839V2.76238H12.8839ZM11.4255 2.76238V1.76238H11.0614L10.7825 1.99653L11.4255 2.76238ZM11.2216 2.84906L11.1098 1.85533L10.0139 1.97862L10.2435 3.05726L11.2216 2.84906ZM11.0177 3.13975L11.8298 3.72329L11.8582 3.68369L11.8827 3.64151L11.0177 3.13975ZM10.8553 3.25576L10.5569 2.3013L9.97302 2.48381L9.86963 3.08676L10.8553 3.25576ZM10.998 4.11584L11.2049 5.09419L12.2596 4.87112L11.9581 3.83618L10.998 4.11584ZM10.7125 4.18318L10.5056 3.20482L9.90381 3.33211L9.74599 3.92659L10.7125 4.18318ZM10.5698 4.77256L11.5362 5.02941L11.5429 5.00434L11.5482 4.97895L10.5698 4.77256ZM10.2133 5.15927L9.85823 4.22441L9.633 4.30995L9.47144 4.48867L10.2133 5.15927ZM9.7337 5.43929L9.68566 4.44045L9.57207 4.44591L9.46261 4.47674L9.7337 5.43929ZM9.56072 5.37195L10.1677 4.57725L9.86492 4.34596L9.48498 4.37482L9.56072 5.37195ZM8.84701 5.1786L8.44641 6.09487L8.45121 6.09694L8.84701 5.1786ZM8.14384 4.8119L8.61273 3.92865L6.84643 2.99098L7.15589 4.96665L8.14384 4.8119ZM8.04188 5.1786L7.1274 4.77397L6.71736 5.70068L7.64943 6.09838L8.04188 5.1786ZM8.36815 5.38129L9.27299 4.95553L9.26331 4.93495L9.2527 4.91484L8.36815 5.38129ZM8.44972 5.67131L9.44932 5.69959L9.44972 5.68545V5.67131H8.44972ZM8.3787 6.71474L7.38042 6.65614L7.37755 6.70498L7.37946 6.75387L8.3787 6.71474ZM8.07282 7.40147L7.99135 8.39814L8.45346 8.43592L8.78087 8.10763L8.07282 7.40147ZM7.73671 7.29479L8.13124 6.37591L7.2433 5.99466L6.83187 6.86903L7.73671 7.29479ZM7.65514 7.57482L8.60655 7.26689L8.58566 7.20235L8.55625 7.14122L7.65514 7.57482ZM7.7571 7.95218L6.87255 8.41863L6.94513 8.55628L7.05611 8.66536L7.7571 7.95218ZM8.61285 9.12096L7.72006 9.57148L7.72339 9.57797L8.61285 9.12096ZM9.16343 10.4064L8.23481 10.7774L8.48611 11.4064H9.16343V10.4064ZM9.28578 10.3964L10.2372 10.0885L10.0132 9.3964H9.28578V10.3964ZM9.36735 10.7831L10.1998 10.2289L10.1927 10.2183L10.1854 10.2079L9.36735 10.7831ZM9.41798 11.1405L10.4155 11.2106L10.418 11.1756V11.1405H9.41798ZM9.34696 12.0105L8.35235 11.9069L8.35233 11.907L9.34696 12.0105ZM9.245 12.6193L8.25594 12.4717L8.24027 12.5768L8.24702 12.6828L9.245 12.6193ZM9.31602 13.0833L8.31834 13.0153L8.31833 13.0154L9.31602 13.0833ZM9.18382 13.4887L8.52899 12.7329L8.17005 13.0439L8.18427 13.5186L9.18382 13.4887ZM9.22461 14.4648L8.29104 14.8232L8.34269 14.9577L8.43022 15.0722L9.22461 14.4648ZM9.76464 15.0642L9.07527 15.7886L9.19809 15.9054L9.35257 15.9753L9.76464 15.0642ZM10.4172 15.3542L11.2521 14.8038L11.1888 14.7077L11.1052 14.6285L10.4172 15.3542ZM10.427 15.7015L10.5588 16.6928L11.2851 16.5962L11.4119 15.8747L10.427 15.7015ZM9.1121 15.7015L8.89393 16.6775L8.93677 16.687L8.98028 16.6928L9.1121 15.7015ZM8.60301 15.5762L8.71409 14.5824L8.6389 14.574L8.5633 14.577L8.60301 15.5762ZM7.87875 15.5182L6.88159 15.5935L6.91661 16.0572L7.29378 16.3293L7.87875 15.5182ZM8.01164 14.7548L7.03822 14.5258L7.03452 14.5415L7.03133 14.5573L8.01164 14.7548ZM8.1136 14.5228L7.11607 14.5929L7.11782 14.6178L7.12082 14.6427L8.1136 14.5228ZM8.05243 13.6147L9.05012 13.5467L9.0109 12.971L8.49276 12.7169L8.05243 13.6147ZM7.95047 13.518L8.93434 13.6969L8.95047 13.6082V13.518H7.95047ZM7.85906 13.0926L6.87562 13.2739L6.88564 13.3282L6.90158 13.3812L7.85906 13.0926ZM7.74655 11.9719L8.74639 11.9542L8.74574 11.917L8.74232 11.88L7.74655 11.9719ZM7.88929 11.7205L8.52594 12.4917L8.83071 12.2401L8.88112 11.8481L7.88929 11.7205ZM7.94063 11.2178L8.93858 11.2817L8.95176 11.0759L8.88242 10.8816L7.94063 11.2178ZM7.79788 10.9858L8.68243 10.5193L8.36534 9.91802L7.68954 9.99168L7.79788 10.9858ZM7.23746 10.8604L8.09124 10.3398L8.07415 10.3118L8.05526 10.2849L7.23746 10.8604ZM6.43233 9.72034L7.25085 9.14586L6.98384 8.76542L6.52088 8.72427L6.43233 9.72034ZM6.08567 9.65234L5.36781 10.3485L5.44206 10.4251L5.53078 10.4843L6.08567 9.65234ZM5.83042 9.23697L6.72718 8.79445L5.5396 6.38781L4.86275 8.98476L5.83042 9.23697ZM5.70807 9.575L4.90496 8.97917L4.88287 9.00894L4.86305 9.04027L5.70807 9.575ZM5.47392 9.82635L4.70349 9.18882L4.61986 9.28988L4.56513 9.40909L5.47392 9.82635ZM5.28055 10.2904L4.35063 9.92262L4.3467 9.93257L4.34297 9.9426L5.28055 10.2904ZM5.08647 10.8898L4.09104 10.7943L4.09008 10.8044L4.08932 10.8144L5.08647 10.8898ZM5.01545 11.1891L5.84864 11.7421L5.90319 11.6599L5.94063 11.5687L5.01545 11.1891ZM4.79114 11.3338L4.36882 10.4274L4.04673 10.5774L3.89155 10.8971L4.79114 11.3338ZM4.59777 11.6919L5.33794 12.3643L5.34769 12.3535L5.35712 12.3425L4.59777 11.6919ZM4.39385 11.8652L3.48902 11.4394L3.46734 11.4855L3.45045 11.5335L4.39385 11.8652ZM4.24056 12.1939L3.34052 11.7581L3.27979 11.8835L3.25566 12.0208L4.24056 12.1939ZM4.26166 12.5513L3.31706 12.223L3.30195 12.2665L3.2909 12.3112L4.26166 12.5513ZM3.8946 13.3727L3.01649 12.8942L2.98206 12.9574L2.95703 13.0249L3.8946 13.3727ZM3.66959 13.9527L2.79706 13.4642L2.78917 13.4783L2.78173 13.4926L3.66959 13.9527ZM3.44598 14.0594L3.32429 13.0668L2.75484 13.1367L2.5277 13.6635L3.44598 14.0594ZM3.19144 14.6968L2.22659 14.434L2.20828 14.5012L2.19947 14.5703L3.19144 14.6968ZM3.17034 15.3442L4.17034 15.3442V15.3133L4.16844 15.2825L3.17034 15.3442ZM3.27301 15.6049L4.21818 15.2783L4.20067 15.2276L4.17784 15.1791L3.27301 15.6049ZM3.26246 15.9529L3.38406 16.9455L4.11915 16.8554L4.24736 16.126L3.26246 15.9529ZM2.06989 15.9242L1.48595 16.736L1.62289 16.8345L1.78456 16.8827L2.06989 15.9242ZM2.0291 15.8082L1.04387 15.9794L1.05194 16.0259L1.06435 16.0714L2.0291 15.8082ZM2.03965 15.2862L2.97706 15.6344L2.98967 15.6005L2.99978 15.5657L2.03965 15.2862ZM2.41655 13.9241L3.37668 14.2036L3.54585 13.6226L3.10959 13.2032L2.41655 13.9241ZM2.2942 13.7594H3.2942V13.7202L3.29113 13.6811L2.2942 13.7594ZM2.32514 13.3727L1.3641 13.0962L1.35867 13.1151L1.35398 13.1342L2.32514 13.3727ZM2.63031 12.7926L3.55843 13.1649L3.56562 13.147L3.57211 13.1288L2.63031 12.7926ZM2.66125 12.5326L3.65486 12.6454L3.66125 12.5892V12.5326H2.66125ZM2.87501 11.9912L2.02851 11.4588L2.00781 11.4917L1.98973 11.5262L2.87501 11.9912ZM3.1605 11.5658L2.52386 10.7947L2.48243 10.8289L2.4449 10.8673L3.1605 11.5658ZM3.30324 11.3052L4.12231 11.8788L4.14824 11.8418L4.17072 11.8026L3.30324 11.3052ZM3.46638 10.9858L2.47503 10.8545L2.46638 10.9199V10.9858H3.46638ZM3.44528 10.5224L4.43728 10.6487L4.43952 10.6311L4.44113 10.6134L3.44528 10.5224ZM3.65975 9.16896L4.6443 9.34405L4.72676 8.88039L4.42184 8.5215L3.65975 9.16896ZM3.5374 9.00494L2.56069 8.79034L2.50503 9.0437L2.57953 9.29216L3.5374 9.00494ZM3.56834 8.8696L4.54849 9.06785L4.62802 8.67462L4.41373 8.33546L3.56834 8.8696ZM3.47692 8.72492L2.65422 8.15645L2.27846 8.70025L2.63153 9.25906L3.47692 8.72492ZM3.59857 8.54157L4.41661 9.11674L4.98562 8.30745L4.18251 7.72977L3.59857 8.54157ZM3.46638 8.44489L2.52203 8.11595L2.2737 8.82885L2.89129 9.26299L3.46638 8.44489ZM3.68014 8.01952L4.08478 7.10505L3.71514 6.94149L3.33568 7.08072L3.68014 8.01952ZM3.77155 8.04819L3.34317 8.95179L4.98146 9.72849L4.76436 7.92845L3.77155 8.04819ZM3.71108 7.28479L4.70392 7.16536L4.69631 7.10208L4.68072 7.04027L3.71108 7.28479ZM3.65975 6.46338L2.84233 5.88733L2.69792 6.09225L2.66726 6.34107L3.65975 6.46338ZM4.12876 6.25136L4.18242 7.24992L4.34081 5.2741L4.12876 6.25136ZM3.46638 6.11602L2.46821 6.17652L2.50983 6.86313L3.16591 7.06981L3.46638 6.11602ZM3.517 5.59397L2.55168 5.33292L2.53965 5.37739L2.53177 5.42278L3.517 5.59397ZM3.61896 4.56055L2.73441 4.0941L2.65422 4.24618L2.62942 4.41632L3.61896 4.56055ZM3.91429 4.4632L3.74388 5.44858L3.75466 5.45044L3.76547 5.45207L3.91429 4.4632ZM4.31229 4.4052L4.59167 5.36538L5.31229 5.1557V4.4052H4.31229ZM4.31229 4.25052L5.2919 4.04963L5.28843 4.03272L5.28439 4.01595L4.31229 4.25052ZM4.31229 3.23643L3.33017 3.0481L3.32923 3.05309L4.31229 3.23643ZM4.91349 2.09632L5.57862 2.84311L5.58514 2.8372L4.91349 2.09632ZM5.76925 1.8063L5.73649 2.80576L5.75287 2.8063H5.76925V1.8063ZM6.01395 1.96098L5.43441 2.77593L6.10494 3.25276L6.702 2.68664L6.01395 1.96098ZM6.12645 1.84497L6.90729 2.4697L7.23929 2.05474L7.08115 1.54739L6.12645 1.84497ZM6.0041 1.33226L7.0023 1.39276L7.00272 1.38492L6.0041 1.33226ZM9.78503 3.04308L9.50853 2.08206L8.66921 2.32355L8.79555 3.18773L9.78503 3.04308ZM9.77448 3.23643L10.1313 4.17062L10.4167 4.06159L10.5925 3.81159L9.77448 3.23643ZM9.61135 3.28443L9.1186 2.41426L5.816 4.28443H9.61135V3.28443ZM10.0403 3.28443L10.1098 4.28201L10.2006 4.27568L10.2887 4.25309L10.0403 3.28443ZM10.1106 3.04308H11.1106V2.65644L10.8505 2.37037L10.1106 3.04308ZM9.42853 3.44911L8.64075 2.83315L8.10619 3.51682L8.70778 4.14232L9.42853 3.44911ZM9.67252 3.82581L8.91318 4.4765L9.69559 5.38956L10.4507 4.45383L9.67252 3.82581ZM10.06 3.34244L10.748 4.0681L12.4327 2.47074L10.1146 2.34393L10.06 3.34244ZM9.51009 3.33244L9.61885 2.33837L9.07257 2.2786L8.72926 2.7077L9.51009 3.33244ZM7.10197 1.05895C7.13001 1.03568 7.16835 1.01595 7.21479 1.0063L6.80793 -0.951879C6.44816 -0.877129 6.10942 -0.716403 5.82457 -0.479958L7.10197 1.05895ZM7.21479 1.0063C7.26132 0.996634 7.30998 0.998398 7.35481 1.01098L7.89499 -0.914695C7.54107 -1.01397 7.16761 -1.02661 6.80793 -0.951879L7.21479 1.0063ZM7.32605 1.00244C7.31653 0.999459 7.32366 1.00023 7.3597 1.02012C7.37774 1.03008 7.39944 1.04278 7.42928 1.06087C7.44415 1.06988 7.45949 1.07928 7.47729 1.09019C7.49441 1.10069 7.51405 1.11274 7.53411 1.12492L8.57215 -0.584603C8.48184 -0.63944 8.22284 -0.812496 7.92375 -0.90616L7.32605 1.00244ZM7.53956 1.12821C7.61304 1.17218 7.6804 1.20443 7.72968 1.22663C7.77262 1.24598 7.8253 1.26782 7.83954 1.27386C7.86424 1.28435 7.86605 1.28567 7.86043 1.28278C7.85316 1.27903 7.82812 1.26568 7.79545 1.2409L9.00414 -0.352545C8.84496 -0.473292 8.68375 -0.540504 8.62129 -0.567025C8.57567 -0.586398 8.56784 -0.589355 8.55117 -0.596868C8.54083 -0.601524 8.54948 -0.598194 8.5667 -0.587886L7.53956 1.12821ZM7.79279 1.23888C7.62361 1.10966 7.50706 0.928501 7.45542 0.731672C7.41093 0.562069 7.42681 0.426497 7.43321 0.380401C7.43846 0.342637 7.44958 0.295195 7.43875 0.344217C7.43607 0.356344 7.40964 0.465865 7.40964 0.598857H9.40964C9.40964 0.660948 9.40325 0.70902 9.39939 0.733815C9.3973 0.747253 9.39531 0.757812 9.39402 0.764297C9.39275 0.770721 9.3918 0.775045 9.39169 0.775531C9.38693 0.797092 9.40507 0.721231 9.41419 0.655631C9.42446 0.581699 9.44104 0.418875 9.38996 0.224144C9.33173 0.00218848 9.20129 -0.201968 9.00679 -0.350525L7.79279 1.23888ZM7.49532 1.00386C7.53549 1.09453 7.55081 1.15572 7.55539 1.19163C7.55925 1.22191 7.55438 1.22321 7.55808 1.21272L9.44402 1.8785C9.67876 1.21354 9.50352 0.599232 9.32395 0.193856L7.49532 1.00386ZM7.7417 0.89492C7.80081 0.825946 7.86009 0.783121 7.8995 0.759055C7.91914 0.747062 7.93504 0.738991 7.94522 0.73417C7.95535 0.729369 7.96161 0.726944 7.96223 0.726704C7.96279 0.726487 7.95993 0.727602 7.95163 0.730398C7.94293 0.733325 7.93234 0.736741 7.91535 0.742128C7.90081 0.746738 7.87719 0.754174 7.85452 0.761584C7.83074 0.769353 7.80109 0.779321 7.7688 0.791207L8.45981 2.66804C8.46637 2.66563 8.47569 2.66259 8.51995 2.64855C8.55428 2.63767 8.61704 2.61782 8.68372 2.59203C8.8085 2.54377 9.05492 2.43609 9.26039 2.1963L7.7417 0.89492ZM7.12624 1.57562C7.08938 1.81207 7.12128 2.01015 7.1427 2.11955C7.15243 2.16925 7.16555 2.22571 7.16947 2.24328C7.17568 2.27109 7.17633 2.27623 7.17599 2.27393L9.15388 1.97739C9.14334 1.90708 9.12993 1.84564 9.12144 1.80759C9.11924 1.79775 9.11706 1.78809 9.11529 1.78028C9.11341 1.77196 9.11192 1.76535 9.11052 1.75907C9.10771 1.74646 9.10627 1.73952 9.10543 1.73524C9.10136 1.71446 9.11814 1.78252 9.10238 1.88363L7.12624 1.57562ZM7.6262 1.28319C7.57185 1.31794 7.5278 1.35208 7.52007 1.35794C7.50725 1.36767 7.52649 1.35246 7.55341 1.33564L8.61333 3.03169C8.67118 2.99553 8.71609 2.96099 8.72876 2.95138C8.74652 2.93791 8.72778 2.95272 8.70367 2.96814L7.6262 1.28319ZM8.13483 3.18234C8.41327 3.16799 8.67959 3.1131 8.85706 3.07835L8.47272 1.11563C8.26204 1.15688 8.14161 1.17934 8.0319 1.18499L8.13483 3.18234ZM9.3565 2.81926C9.23756 2.93315 9.10474 2.99584 8.99297 3.02695C8.8924 3.05493 8.81532 3.05554 8.79608 3.05557C8.78436 3.05559 8.778 3.05518 8.78349 3.05544C8.78613 3.05557 8.78927 3.05573 8.79594 3.05609C8.80159 3.05639 8.81077 3.05688 8.82045 3.05734C8.85262 3.05886 8.94256 3.06325 9.04788 3.05172L8.83036 1.06359C8.88998 1.05706 8.93166 1.06036 8.91494 1.05957C8.9124 1.05945 8.90931 1.05929 8.90269 1.05894C8.89709 1.05864 8.88794 1.05815 8.87832 1.05769C8.85928 1.05679 8.82848 1.05551 8.79263 1.05557C8.66894 1.05579 8.29367 1.06792 7.97327 1.37473L9.3565 2.81926ZM9.9361 2.13535C9.93478 2.15224 9.93055 2.16713 9.95124 2.07183C9.96576 2.005 10.001 1.84692 10.001 1.66162H8.001C8.001 1.61167 8.01058 1.58393 7.99679 1.64745C7.99245 1.66741 7.98044 1.72076 7.97106 1.76976C7.96069 1.82397 7.94865 1.89641 7.94214 1.97996L9.9361 2.13535ZM9.06565 2.65953C9.20541 2.65047 9.3436 2.61796 9.47402 2.56248L8.69111 0.722087C8.76999 0.688531 8.85295 0.669114 8.93635 0.663711L9.06565 2.65953ZM8.08771 1.74359C8.08696 1.73616 8.08725 1.73551 8.08794 1.7534C8.08822 1.7606 8.08969 1.80707 8.09143 1.83996C8.09558 1.91865 8.1063 2.06426 8.15839 2.23081L10.0672 1.63381C10.0891 1.70369 10.0896 1.75262 10.0887 1.73464C10.0885 1.73084 10.0882 1.72524 10.0878 1.71504C10.0876 1.70827 10.087 1.68938 10.0864 1.67618C10.0853 1.64573 10.0831 1.59674 10.0774 1.54098L8.08771 1.74359ZM8.51109 2.73102C8.66033 2.84345 8.81098 2.89752 8.92432 2.92454C9.03303 2.95045 9.125 2.95547 9.17231 2.95707C9.2064 2.95823 9.27041 2.95809 9.25185 2.95798C9.25185 2.95798 9.25135 2.95798 9.25046 2.95797C9.24957 2.95795 9.24816 2.95793 9.24634 2.95789C9.24278 2.9578 9.23694 2.95762 9.22939 2.95721C9.21506 2.95644 9.18918 2.95459 9.15604 2.94954L9.45771 0.97242C9.36712 0.958597 9.29035 0.958179 9.26407 0.958018C9.25579 0.957968 9.24834 0.957975 9.24336 0.957984C9.23713 0.957995 9.23543 0.958003 9.23242 0.958002C9.22731 0.958001 9.23178 0.95794 9.23999 0.958218C9.25284 0.958653 9.31097 0.960671 9.38805 0.979043C9.46974 0.998516 9.59094 1.0405 9.71451 1.13359L8.51109 2.73102ZM8.30688 1.96098C8.30688 1.98082 8.30196 2.14429 8.34763 2.32369L10.2858 1.83029C10.3005 1.888 10.3047 1.93338 10.3061 1.95547C10.3068 1.96648 10.3069 1.97356 10.3069 1.97407C10.3069 1.97443 10.3069 1.9738 10.3069 1.9715C10.3069 1.96899 10.3069 1.96614 10.3069 1.96098H8.30688ZM9.32462 3.07696C10.502 3.06766 11.6802 3.07699 12.8733 3.07699V1.07699C11.7025 1.07699 10.4955 1.06765 9.30883 1.07702L9.32462 3.07696ZM11.8733 2.07699V2.24167H13.8733V2.07699H11.8733ZM12.8733 3.24167H12.9858V1.24167H12.8733V3.24167ZM13.9858 2.24167V1.61295H11.9858V2.24167H13.9858ZM12.9858 2.61295H13.118V0.612948H12.9858V2.61295ZM12.118 1.61295C12.118 1.70484 12.1079 1.97482 12.1196 2.18147L14.1164 2.06851C14.1084 1.92713 14.118 1.86776 14.118 1.61295H12.118ZM12.4611 2.8789C12.6586 3.05103 12.9069 3.14116 13.157 3.14425L13.1817 1.14441C13.3937 1.14703 13.6055 1.22339 13.775 1.37108L12.4611 2.8789ZM12.1694 2.14433C12.1694 2.18664 12.1719 2.22145 12.1739 2.24342C12.1761 2.26654 12.1786 2.28601 12.1804 2.29939C12.1823 2.31309 12.1842 2.32478 12.1854 2.33259C12.1867 2.3402 12.1879 2.34733 12.1884 2.35032C12.1891 2.35458 12.1891 2.3547 12.189 2.35419C12.1889 2.35348 12.1882 2.34874 12.1872 2.34168C12.1862 2.33496 12.1845 2.32183 12.1829 2.30459C12.1815 2.28852 12.1792 2.25914 12.1792 2.22167H14.1792C14.1792 2.17936 14.1766 2.14455 14.1746 2.12258C14.1725 2.09946 14.17 2.07998 14.1682 2.06661C14.1663 2.05291 14.1644 2.04121 14.1632 2.03341C14.1619 2.0258 14.1607 2.01867 14.1602 2.01568C14.1595 2.01142 14.1595 2.01129 14.1595 2.01181C14.1597 2.01251 14.1604 2.01726 14.1614 2.02431C14.1623 2.03104 14.1641 2.04417 14.1656 2.06141C14.1671 2.07748 14.1694 2.10685 14.1694 2.14433H12.1694ZM13.8673 2.94733C13.8369 2.97611 13.7494 3.05441 13.6052 3.10957C13.4393 3.17304 13.2362 3.19058 13.0343 3.12749L13.6308 1.21851C13.0445 1.03533 12.6233 1.37074 12.4912 1.49601L13.8673 2.94733ZM12.3845 2.49114C12.3864 2.49695 12.3882 2.50229 12.3897 2.50659C12.3904 2.50873 12.3911 2.51084 12.3917 2.51261C12.3924 2.51448 12.3929 2.51603 12.3934 2.51754C12.3955 2.5237 12.3963 2.52607 12.3967 2.52725C12.397 2.52814 12.3954 2.52341 12.3937 2.51638L14.3318 2.02297C14.3101 1.93762 14.2819 1.85888 14.2805 1.85486L12.3845 2.49114ZM12.6747 1.54401C12.5682 1.64494 12.4382 1.8051 12.366 2.03318C12.2892 2.27576 12.301 2.52365 12.3774 2.74331L14.2665 2.08673C14.3225 2.24772 14.3343 2.44227 14.2728 2.63651C14.216 2.81625 14.1165 2.93308 14.0508 2.99533L12.6747 1.54401ZM13.2934 3.41461C13.6363 3.42442 14.0148 3.41502 14.3106 3.41502V1.41502C13.9342 1.41502 13.6601 1.42428 13.3506 1.41543L13.2934 3.41461ZM15.0914 3.03975C14.9911 3.16512 14.8833 3.22865 14.8355 3.25385C14.794 3.2757 14.7604 3.2869 14.796 3.27349L14.091 1.40187C14.0753 1.40779 13.9907 1.43832 13.9034 1.48435C13.8096 1.53372 13.661 1.62625 13.5298 1.79029L15.0914 3.03975ZM14.0051 3.23648C13.9614 3.21516 13.9194 3.18871 13.8799 3.15717L15.1294 1.59553C15.0524 1.53392 14.9693 1.48153 14.8819 1.43888L14.0051 3.23648ZM14.5047 3.37635H14.9828V1.37635H14.5047V3.37635ZM14.0138 2.62309C13.999 2.56505 13.996 2.50406 14.0053 2.44423L15.9814 2.75251C16.0138 2.54476 16.0037 2.33301 15.9519 2.12961L14.0138 2.62309ZM14.9934 1.59837H14.504V3.59837H14.9934V1.59837ZM13.7899 1.8983C13.8297 1.85774 13.8735 1.82314 13.9198 1.7947L14.9658 3.49938C15.057 3.44341 15.1419 3.37612 15.2181 3.29844L13.7899 1.8983ZM14.9442 1.7818C14.9008 1.75666 14.8631 1.73674 14.8392 1.72411C14.813 1.71021 14.8038 1.70535 14.7935 1.69953L13.808 3.43987C13.8484 3.46272 13.8849 3.48186 13.9043 3.49213C13.9261 3.50367 13.9342 3.50809 13.9414 3.51228L14.9442 1.7818ZM14.3008 1.5697H13.4141V3.5697H14.3008V1.5697ZM13.1477 1.60584C13.1639 1.60134 13.1666 1.60337 13.1487 1.60337C13.1302 1.60337 13.099 1.60123 13.0511 1.59311L12.7167 3.56496C12.9578 3.60585 13.3064 3.63696 13.6805 3.53356L13.1477 1.60584ZM11.8839 2.57903V2.76238H13.8839V2.57903H11.8839ZM12.8839 1.76238H11.4255V3.76238H12.8839V1.76238ZM10.7825 1.99653C10.8797 1.9149 10.9945 1.8683 11.1098 1.85533L11.3334 3.84279C11.6001 3.81278 11.8572 3.70571 12.0685 3.52824L10.7825 1.99653ZM10.2435 3.05726C10.2263 2.97637 10.2188 2.88045 10.2319 2.77533C10.2451 2.66965 10.2765 2.57491 10.3166 2.4945C10.3907 2.3459 10.486 2.26501 10.4964 2.25591C10.5045 2.24883 10.5093 2.24526 10.4952 2.25651C10.4868 2.26314 10.4587 2.2853 10.43 2.30979C10.3757 2.35628 10.2526 2.46579 10.1527 2.63799L11.8827 3.64151C11.8137 3.76037 11.7354 3.82505 11.73 3.82974C11.7258 3.83333 11.723 3.83536 11.7399 3.82193C11.751 3.81312 11.7808 3.78957 11.8125 3.7619C11.87 3.71163 12.0066 3.58716 12.1064 3.38709C12.2218 3.15567 12.2538 2.89495 12.1997 2.64086L10.2435 3.05726ZM10.2056 2.55622C10.2971 2.4289 10.4231 2.34314 10.5569 2.3013L11.1536 4.21022C11.4197 4.12704 11.6599 3.95973 11.8298 3.72329L10.2056 2.55622ZM9.86963 3.08676C9.7684 3.67713 9.99819 4.2592 10.0379 4.3955L11.9581 3.83618C11.9372 3.76437 11.9054 3.6628 11.8915 3.61676C11.8727 3.55443 11.8607 3.51076 11.8527 3.4747C11.8369 3.4041 11.8451 3.39992 11.8409 3.42476L9.86963 3.08676ZM10.7911 3.13749C10.7257 3.15132 10.6601 3.16765 10.6151 3.17876C10.563 3.19165 10.5316 3.19932 10.5056 3.20482L10.9194 5.16153C10.9848 5.1477 11.0504 5.13137 11.0954 5.12025C11.1475 5.10737 11.1789 5.09969 11.2049 5.09419L10.7911 3.13749ZM9.74599 3.92659C9.69243 4.12831 9.63704 4.34931 9.59129 4.56618L11.5482 4.97895C11.5841 4.80912 11.6299 4.62475 11.679 4.43977L9.74599 3.92659ZM9.60331 4.51572C9.62292 4.44193 9.65946 4.37838 9.70527 4.3287L11.1757 5.68433C11.3455 5.50023 11.4706 5.27633 11.5362 5.02941L9.60331 4.51572ZM9.70527 4.3287C9.75084 4.27927 9.80409 4.24497 9.85823 4.22441L10.5683 6.09412C10.7972 6.00718 11.0062 5.86819 11.1757 5.68433L9.70527 4.3287ZM9.47144 4.48867C9.44282 4.52032 9.43771 4.51951 9.45758 4.50667C9.47998 4.49219 9.55965 4.44651 9.68566 4.44045L9.78174 6.43814C10.401 6.40835 10.8019 5.99937 10.9551 5.82986L9.47144 4.48867ZM9.46261 4.47674C9.58312 4.4428 9.70996 4.43525 9.83315 4.45386C9.95118 4.47168 10.0417 4.50977 10.099 4.53939C10.1535 4.5676 10.1891 4.59417 10.1955 4.59887C10.1994 4.60178 10.2011 4.60315 10.1956 4.59889C10.193 4.59683 10.1799 4.58652 10.1677 4.57725L8.95372 6.16665C8.92579 6.14532 8.99257 6.19675 9.00278 6.20433C9.03518 6.22841 9.09759 6.27315 9.18017 6.31586C9.36796 6.41298 9.6624 6.49828 10.0048 6.40185L9.46261 4.47674ZM9.48498 4.37482C9.53317 4.37116 9.54856 4.38306 9.50259 4.36806C9.47986 4.36065 9.44953 4.34921 9.40463 4.33035C9.38242 4.32102 9.35897 4.31087 9.33157 4.29892C9.30611 4.28781 9.2736 4.27354 9.2428 4.26026L8.45121 6.09694C8.57867 6.15187 9.07868 6.41145 9.63646 6.36908L9.48498 4.37482ZM9.24759 4.26234C9.04891 4.17548 8.9124 4.08773 8.61273 3.92865L7.67495 5.69516C7.84499 5.78543 8.15711 5.96837 8.44642 6.09486L9.24759 4.26234ZM7.15589 4.96665C7.13118 4.80891 7.16853 4.69301 7.17907 4.66369C7.18358 4.65117 7.18548 4.64856 7.17557 4.66989C7.1698 4.68229 7.1664 4.68935 7.15684 4.70971C7.14903 4.72631 7.13847 4.74895 7.1274 4.77397L8.95636 5.58323C8.96477 5.56422 8.96505 5.56489 8.9893 5.51272C9.00662 5.47545 9.03475 5.41368 9.06097 5.34081C9.11494 5.19082 9.1776 4.94957 9.13179 4.65716L7.15589 4.96665ZM7.64943 6.09838C7.67773 6.11045 7.70367 6.1207 7.72207 6.12788C7.73136 6.13151 7.7407 6.13512 7.74772 6.13783C7.75537 6.14079 7.76122 6.14306 7.76665 6.14519C7.79092 6.15471 7.78721 6.154 7.77418 6.14743C7.75807 6.13931 7.59476 6.05854 7.4836 5.84773L9.2527 4.91484C9.08036 4.58802 8.81017 4.42991 8.67435 4.36146C8.60146 4.32472 8.53469 4.29809 8.49679 4.28323C8.48668 4.27926 8.47705 4.27553 8.46933 4.27255C8.46099 4.26932 8.45508 4.26704 8.44931 4.26479C8.4376 4.26021 8.43416 4.25876 8.43433 4.25883L7.64943 6.09838ZM7.46331 5.80705C7.47886 5.84009 7.47607 5.83734 7.47066 5.82023C7.46428 5.80002 7.44972 5.74684 7.44972 5.67131H9.44972C9.44972 5.32332 9.31683 5.0487 9.27299 4.95553L7.46331 5.80705ZM7.45012 5.64304C7.44027 5.99121 7.40655 6.21089 7.38042 6.65614L9.37698 6.77334C9.39162 6.52386 9.43948 6.04748 9.44932 5.69959L7.45012 5.64304ZM7.37946 6.75387C7.37823 6.7225 7.38174 6.69837 7.38517 6.68308C7.38854 6.66807 7.39204 6.66058 7.3922 6.66023C7.39238 6.65986 7.39045 6.66397 7.38516 6.67138C7.37992 6.67874 7.37298 6.68707 7.36477 6.6953L8.78087 8.10763C9.08992 7.79775 9.40206 7.29178 9.37793 6.6756L7.37946 6.75387ZM8.15429 6.40479C8.17865 6.40678 8.19893 6.41049 8.2138 6.414C8.22813 6.41737 8.23601 6.42023 8.23503 6.41989C8.23335 6.41929 8.22611 6.41663 8.20782 6.40891C8.1988 6.40511 8.18875 6.40078 8.17563 6.3951C8.16377 6.38997 8.14712 6.38273 8.13124 6.37591L7.34217 8.21367C7.39706 8.23724 7.66933 8.37182 7.99135 8.39814L8.15429 6.40479ZM6.83187 6.86903C6.85034 6.82977 6.86917 6.80153 6.84861 6.83483C6.84004 6.84871 6.79618 6.91784 6.75762 6.99926C6.71664 7.08578 6.65951 7.22973 6.644 7.41462C6.62734 7.61304 6.66215 7.81745 6.75403 8.00842L8.55625 7.14122C8.62247 7.27884 8.64953 7.43242 8.63699 7.58187C8.62558 7.7178 8.58441 7.81466 8.56514 7.85535C8.54829 7.89092 8.5319 7.91547 8.55047 7.88539C8.55705 7.87473 8.60268 7.80315 8.64154 7.72055L6.83187 6.86903ZM6.70373 7.88274C6.6983 7.86597 6.69746 7.85903 6.70056 7.87395C6.70208 7.88126 6.70386 7.89038 6.70681 7.90587C6.70931 7.91902 6.71344 7.94098 6.71768 7.96229C6.73355 8.04211 6.77059 8.22528 6.87255 8.41863L8.64165 7.48574C8.66379 7.52773 8.67485 7.56099 8.67936 7.57611C8.68331 7.58936 8.6834 7.59299 8.67927 7.57221C8.67713 7.56148 8.67521 7.55124 8.67158 7.53214C8.66839 7.51538 8.66396 7.49222 8.65879 7.46731C8.6485 7.41778 8.63237 7.34667 8.60655 7.26689L6.70373 7.88274ZM7.05611 8.66536C7.32908 8.93366 7.55276 9.2399 7.72008 9.57147L9.50562 8.67044C9.23836 8.14083 8.88416 7.6578 8.45808 7.23901L7.05611 8.66536ZM7.72339 9.57797C7.90946 9.9401 8.04987 10.3145 8.23481 10.7774L10.0921 10.0354C9.92963 9.62886 9.74377 9.13389 9.50231 8.66394L7.72339 9.57797ZM9.16343 11.4064C9.19308 11.4064 9.21817 11.4052 9.2351 11.4042C9.25281 11.4032 9.26839 11.4019 9.28014 11.4009C9.30207 11.3989 9.32368 11.3965 9.33269 11.3955C9.34624 11.394 9.34751 11.3939 9.34632 11.394C9.34496 11.3942 9.33942 11.3947 9.33106 11.3951C9.32341 11.3956 9.30728 11.3964 9.28578 11.3964V9.3964C9.25655 9.3964 9.23174 9.39753 9.21471 9.39853C9.19696 9.39956 9.18132 9.40083 9.16941 9.40189C9.1471 9.40387 9.12539 9.40627 9.116 9.40729C9.10206 9.40881 9.10078 9.40892 9.10176 9.40883C9.10305 9.40871 9.10865 9.40822 9.1171 9.40772C9.12478 9.40726 9.14134 9.4064 9.16343 9.4064V11.4064ZM8.33437 10.7043C8.31313 10.6387 8.30904 10.5913 8.30886 10.5895C8.30873 10.5881 8.309 10.5906 8.30993 10.6055C8.31056 10.6156 8.3122 10.6439 8.3142 10.67C8.32196 10.7711 8.34523 11.068 8.54931 11.3583L10.1854 10.2079C10.2466 10.295 10.278 10.3792 10.2937 10.4397C10.3077 10.4934 10.3093 10.5295 10.3083 10.517C10.3078 10.5099 10.3075 10.5048 10.3061 10.4815C10.3049 10.4632 10.303 10.4323 10.2997 10.3978C10.2931 10.3299 10.2788 10.2171 10.2372 10.0885L8.33437 10.7043ZM8.53495 11.3373C8.43779 11.1913 8.42368 11.056 8.42125 11.0173C8.42027 11.0016 8.42103 10.9962 8.42039 11.0209C8.42025 11.0265 8.42007 11.0324 8.41984 11.0403C8.41962 11.0476 8.41933 11.0571 8.41907 11.0667C8.41856 11.0861 8.41798 11.1118 8.41798 11.1405H10.418C10.418 11.1263 10.4184 11.1234 10.4197 11.0726C10.4207 11.0353 10.4221 10.9683 10.4173 10.8923C10.4074 10.7329 10.3679 10.4815 10.1998 10.2289L8.53495 11.3373ZM8.42044 11.0703C8.39985 11.3631 8.38055 11.6364 8.35235 11.9069L10.3416 12.1142C10.3738 11.8047 10.3953 11.4979 10.4155 11.2106L8.42044 11.0703ZM8.35233 11.907C8.34633 11.9647 8.33508 12.0319 8.31661 12.1302C8.30034 12.2168 8.27469 12.3461 8.25594 12.4717L10.2341 12.7668C10.2455 12.6898 10.2603 12.6161 10.2822 12.4996C10.3019 12.3949 10.3265 12.2591 10.3416 12.1141L8.35233 11.907ZM8.24702 12.6828C8.25355 12.7855 8.26936 12.874 8.28219 12.9365C8.29333 12.9908 8.30958 13.058 8.31375 13.0761C8.32109 13.1079 8.32123 13.1118 8.32035 13.1055C8.31917 13.0971 8.31502 13.0639 8.31834 13.0153L10.3137 13.1513C10.33 12.912 10.281 12.7064 10.2626 12.6265C10.2489 12.5672 10.246 12.5571 10.2413 12.5341C10.2382 12.5192 10.2414 12.5304 10.243 12.5558L8.24702 12.6828ZM8.31833 13.0154C8.3142 13.0761 8.3145 13.0803 8.31247 13.1029C8.31133 13.1155 8.31197 13.0999 8.31886 13.0708C8.32621 13.0396 8.34245 12.9848 8.37781 12.9203C8.41473 12.8529 8.46547 12.7879 8.52899 12.7329L9.83866 14.2445C10.101 14.0172 10.2153 13.7423 10.2654 13.5302C10.3061 13.3576 10.3125 13.1692 10.3137 13.1512L8.31833 13.0154ZM8.18427 13.5186C8.1882 13.6497 8.174 13.6525 8.16278 13.9417C8.15451 14.1547 8.15787 14.4763 8.29104 14.8232L10.1582 14.1064C10.169 14.1345 10.1569 14.1325 10.1613 14.0192C10.1638 13.9544 10.1683 13.9045 10.1751 13.7992C10.1809 13.709 10.1873 13.5891 10.1834 13.4587L8.18427 13.5186ZM8.43022 15.0722C8.62755 15.3303 8.84675 15.5711 9.07527 15.7886L10.454 14.3397C10.2958 14.1892 10.1479 14.026 10.019 13.8574L8.43022 15.0722ZM9.35257 15.9753C9.45936 16.0236 9.55908 16.0568 9.62722 16.0785C9.65981 16.0889 9.69717 16.1004 9.71933 16.1073C9.74563 16.1155 9.76412 16.1214 9.77968 16.1267C9.84698 16.1496 9.79398 16.1413 9.72912 16.0798L11.1052 14.6285C10.8568 14.393 10.5845 14.288 10.4248 14.2336C10.3585 14.211 10.259 14.1808 10.2347 14.173C10.2131 14.1662 10.1989 14.1613 10.1887 14.1576C10.1786 14.1539 10.1754 14.1524 10.1767 14.153L9.35257 15.9753ZM9.58225 15.9045C9.45657 15.7139 9.45373 15.5297 9.45816 15.4604C9.46008 15.4305 9.46382 15.4145 9.46088 15.4302C9.45941 15.4381 9.45791 15.4456 9.45433 15.4637C9.45132 15.4789 9.44666 15.5026 9.44212 15.5284L11.4119 15.8747C11.4186 15.8366 11.412 15.8774 11.4271 15.7964C11.4352 15.7529 11.4484 15.6772 11.4541 15.5883C11.4661 15.401 11.4481 15.1012 11.2521 14.8038L9.58225 15.9045ZM10.2952 14.7103C9.94652 14.7566 9.5926 14.7566 9.24392 14.7103L8.98028 16.6928C9.50395 16.7625 10.0352 16.7625 10.5588 16.6928L10.2952 14.7103ZM9.33027 14.7256C9.28225 14.7149 9.25079 14.7041 9.13309 14.6703C9.03836 14.6432 8.88781 14.6018 8.71409 14.5824L8.49192 16.57C8.49118 16.5699 8.50869 16.5719 8.58201 16.5929C8.59942 16.5979 8.61715 16.6031 8.63913 16.6096C8.65996 16.6157 8.68456 16.6229 8.71 16.6301C8.76084 16.6446 8.82407 16.6618 8.89393 16.6775L9.33027 14.7256ZM8.5633 14.577C8.50785 14.5792 8.45716 14.5834 8.41576 14.5875C8.37558 14.5914 8.33541 14.5961 8.30768 14.5993C8.24177 14.6068 8.21839 14.6087 8.20389 14.6091C8.19262 14.6095 8.22037 14.6073 8.26898 14.6182C8.32341 14.6305 8.39415 14.657 8.46371 14.7071L7.29378 16.3293C7.65674 16.591 8.03712 16.6149 8.26257 16.6083C8.37297 16.605 8.47577 16.5931 8.53416 16.5864C8.60774 16.578 8.62863 16.576 8.64272 16.5754L8.5633 14.577ZM8.87591 15.4429C8.87733 15.4617 8.87215 15.4489 8.89307 15.3585C8.90383 15.312 8.91576 15.2675 8.93459 15.195C8.95143 15.1303 8.9734 15.0444 8.99196 14.9522L7.03133 14.5573C7.02458 14.5909 7.01482 14.6307 6.99891 14.6919C6.985 14.7454 6.96318 14.8272 6.94458 14.9075C6.90679 15.0708 6.86048 15.314 6.88159 15.5935L8.87591 15.4429ZM8.98507 14.9838C8.95778 15.0998 8.91303 15.1788 8.89627 15.2069C8.88756 15.2215 8.8814 15.2304 8.88364 15.2271C8.88489 15.2252 8.88594 15.2237 8.89011 15.2176C8.89345 15.2127 8.89911 15.2044 8.90532 15.1952C8.92542 15.1651 8.98733 15.0729 9.03611 14.9484C9.0905 14.8095 9.13283 14.6218 9.10639 14.4029L7.12082 14.6427C7.11073 14.5591 7.11307 14.4782 7.12461 14.4029C7.13598 14.3287 7.15518 14.2667 7.17387 14.219C7.1922 14.1722 7.21089 14.137 7.22275 14.1162C7.22885 14.1055 7.23396 14.0972 7.2373 14.0919C7.24061 14.0867 7.24284 14.0833 7.24313 14.0829C7.24328 14.0827 7.24276 14.0835 7.23987 14.0877C7.23782 14.0907 7.23261 14.0983 7.22766 14.1056C7.21748 14.1206 7.1991 14.148 7.17905 14.1816C7.13962 14.2477 7.0757 14.3665 7.03822 14.5258L8.98507 14.9838ZM9.11114 14.4526C9.09003 14.1524 9.07102 13.8536 9.05012 13.5467L7.05474 13.6827C7.07462 13.9745 7.09499 14.2931 7.11607 14.5929L9.11114 14.4526ZM8.49276 12.7169C8.46268 12.7021 8.3897 12.6703 8.42426 12.6856C8.42707 12.6869 8.43964 12.6925 8.45682 12.7013C8.47391 12.7101 8.50192 12.7253 8.53543 12.7476C8.59502 12.7872 8.72298 12.8822 8.82306 13.0562C8.93755 13.2553 8.97308 13.4839 8.93434 13.6969L6.9666 13.3391C6.92259 13.5812 6.96313 13.8339 7.08937 14.0534C7.20121 14.2478 7.34767 14.3596 7.42897 14.4136C7.51196 14.4687 7.58689 14.5021 7.61135 14.513C7.6705 14.5393 7.62179 14.5173 7.6121 14.5125L8.49276 12.7169ZM8.95047 13.518C8.95047 13.187 8.8349 12.8651 8.81653 12.8041L6.90158 13.3812C6.90766 13.4013 6.9138 13.4213 6.91887 13.4378C6.92425 13.4553 6.92868 13.4697 6.93288 13.4837C6.9413 13.5117 6.94636 13.5299 6.94973 13.5434C6.95706 13.5728 6.95047 13.5579 6.95047 13.518H8.95047ZM8.8425 12.9114C8.78419 12.595 8.75208 12.275 8.74639 11.9542L6.74671 11.9896C6.75434 12.4203 6.79746 12.8498 6.87562 13.2739L8.8425 12.9114ZM8.74232 11.88C8.76199 12.0931 8.69245 12.2682 8.62196 12.3766C8.56488 12.4644 8.50923 12.5055 8.52594 12.4917L7.25265 10.9494C7.1633 11.0231 6.68976 11.4025 6.75078 12.0638L8.74232 11.88ZM8.88112 11.8481C8.90327 11.6759 8.92603 11.4776 8.93858 11.2817L6.94267 11.1539C6.93412 11.2874 6.9175 11.4371 6.89746 11.593L8.88112 11.8481ZM8.88242 10.8816C8.81702 10.6984 8.72011 10.564 8.68737 10.518C8.65786 10.4766 8.66488 10.4872 8.65532 10.4734C8.65323 10.4704 8.66617 10.4885 8.68243 10.5193L6.91333 11.4522C6.94999 11.5217 6.9871 11.5774 7.01076 11.6116C7.02293 11.6291 7.03419 11.6448 7.04176 11.6553C7.05106 11.6682 7.05407 11.6723 7.05852 11.6786C7.06633 11.6895 7.05972 11.681 7.04936 11.6634C7.0382 11.6444 7.0177 11.6069 6.99883 11.554L8.88242 10.8816ZM7.68954 9.99168C7.62906 9.99827 7.60734 10.001 7.58177 10.0027C7.55932 10.0042 7.56843 10.002 7.59599 10.0049C7.62261 10.0077 7.69998 10.0186 7.79667 10.0673C7.90393 10.1214 8.01319 10.2118 8.09124 10.3398L6.38367 11.3811C6.66947 11.8498 7.13038 11.9668 7.38556 11.9938C7.62031 12.0187 7.85697 11.9853 7.90623 11.9799L7.68954 9.99168ZM8.05526 10.2849C7.78076 9.89488 7.51943 9.52854 7.25085 9.14586L5.61382 10.2948C5.87401 10.6655 6.16397 11.0726 6.41966 11.436L8.05526 10.2849ZM6.52088 8.72427C6.49157 8.72167 6.46519 8.72002 6.44523 8.7189C6.42789 8.71793 6.4051 8.71683 6.39635 8.71638C6.36894 8.71497 6.36831 8.7145 6.3753 8.71535C6.38686 8.71675 6.50548 8.73032 6.64056 8.82041L5.53078 10.4843C5.76782 10.6424 6.00352 10.6849 6.13479 10.7008C6.20164 10.7089 6.26152 10.7121 6.29373 10.7137C6.31479 10.7148 6.32158 10.7151 6.33341 10.7158C6.34261 10.7163 6.34497 10.7165 6.34379 10.7164L6.52088 8.72427ZM6.80354 8.95615C6.82616 8.97948 6.82789 8.98899 6.8104 8.95847C6.80219 8.94415 6.7919 8.92489 6.77764 8.89661C6.76163 8.86486 6.74923 8.83913 6.72718 8.79445L4.93366 9.67948C4.97871 9.77078 5.12108 10.0941 5.36781 10.3485L6.80354 8.95615ZM4.86275 8.98476C4.857 9.0068 4.85193 9.02736 4.84793 9.04379C4.84596 9.05187 4.84391 9.06031 4.84229 9.06699C4.84055 9.07414 4.83907 9.08024 4.83765 9.08598C4.8348 9.09755 4.83282 9.10532 4.83126 9.11115C4.82973 9.11685 4.82905 9.11905 4.82912 9.11883C4.8292 9.11857 4.83035 9.11485 4.83268 9.10856C4.83503 9.10223 4.83884 9.09258 4.84441 9.08043C4.85559 9.05609 4.87465 9.02003 4.90496 8.97917L6.51118 10.1708C6.64193 9.99459 6.70611 9.81921 6.74049 9.70763C6.758 9.65078 6.77106 9.59903 6.77962 9.56428C6.79054 9.51992 6.79268 9.50993 6.7981 9.48917L4.86275 8.98476ZM4.86305 9.04027C4.8857 9.00447 4.90546 8.98168 4.91288 8.97344C4.91938 8.96623 4.92051 8.9658 4.90538 8.9802C4.89706 8.98813 4.89087 8.99391 4.87715 9.00686C4.8655 9.01784 4.84987 9.03265 4.83311 9.04904C4.80018 9.08122 4.75288 9.12914 4.70349 9.18882L6.24434 10.4639C6.23082 10.4802 6.22307 10.4871 6.23121 10.4792C6.24698 10.4638 6.24682 10.4645 6.28452 10.4286C6.33224 10.3832 6.4516 10.2701 6.5531 10.1097L4.86305 9.04027ZM4.56513 9.40909C4.48107 9.59216 4.41033 9.77168 4.35063 9.92262L6.21046 10.6582C6.27312 10.4997 6.32472 10.3699 6.3827 10.2436L4.56513 9.40909ZM4.34297 9.9426C4.33198 9.97225 4.31872 10.0049 4.29772 10.056C4.27889 10.1019 4.25253 10.1658 4.22745 10.233C4.17726 10.3674 4.11326 10.5625 4.09104 10.7943L6.08191 10.9852C6.08007 11.0044 6.07725 10.9965 6.10107 10.9327C6.11299 10.9007 6.12685 10.8668 6.14794 10.8154C6.16687 10.7693 6.19325 10.7052 6.21812 10.6382L4.34297 9.9426ZM4.08932 10.8144C4.08952 10.8117 4.0901 10.81 4.09027 10.8096L5.94063 11.5687C6.01945 11.3765 6.06791 11.173 6.08363 10.9652L4.08932 10.8144ZM4.18226 10.6362C4.2795 10.4897 4.39579 10.4204 4.43193 10.4004C4.44939 10.3908 4.45908 10.387 4.4458 10.3929C4.43781 10.3965 4.43398 10.3981 4.4185 10.4049C4.40629 10.4103 4.38847 10.4182 4.36882 10.4274L5.21347 12.2403C5.2255 12.2347 5.21818 12.2383 5.26097 12.2192C5.28937 12.2065 5.34041 12.1834 5.39734 12.152C5.51241 12.0886 5.70008 11.966 5.84864 11.7421L4.18226 10.6362ZM3.89155 10.8971C3.86789 10.9458 3.84738 10.9921 3.83433 11.0214C3.8191 11.0556 3.81211 11.0712 3.80583 11.0841C3.79499 11.1065 3.80559 11.0795 3.83843 11.0412L5.35712 12.3425C5.48136 12.1975 5.55806 12.0545 5.60576 11.956C5.62875 11.9086 5.64914 11.8625 5.66162 11.8344C5.67628 11.8015 5.68381 11.7848 5.69073 11.7706L3.89155 10.8971ZM3.8576 11.0194C3.91776 10.9532 3.97252 10.9156 3.98796 10.9052C3.99602 10.8998 4.00044 10.8972 3.99374 10.9013C3.99259 10.902 3.97104 10.9152 3.95516 10.9252C3.89184 10.9651 3.63938 11.1199 3.48902 11.4394L5.29869 12.291C5.27225 12.3472 5.24105 12.3972 5.20778 12.441C5.17486 12.4843 5.14207 12.5185 5.11391 12.5446C5.08614 12.5703 5.06222 12.5887 5.04679 12.5999C5.03175 12.6108 5.02135 12.6173 5.02117 12.6174C5.02089 12.6176 5.02173 12.617 5.02522 12.6149C5.027 12.6138 5.02876 12.6127 5.03147 12.6111C5.03393 12.6096 5.03712 12.6076 5.0405 12.6055C5.05316 12.5978 5.07686 12.5831 5.10371 12.5651C5.15675 12.5294 5.24719 12.4642 5.33794 12.3643L3.8576 11.0194ZM3.45045 11.5335C3.44929 11.5368 3.44366 11.5517 3.4241 11.5914C3.41419 11.6115 3.40389 11.6317 3.3891 11.6608C3.37559 11.6873 3.3581 11.7218 3.34052 11.7581L5.1406 12.6297C5.15099 12.6082 5.27167 12.3834 5.33725 12.1969L3.45045 11.5335ZM3.25566 12.0208C3.22588 12.1902 3.23837 12.3333 3.25038 12.4199C3.25655 12.4643 3.2639 12.5023 3.26907 12.5277C3.27291 12.5464 3.28008 12.5795 3.28031 12.5806C3.28249 12.5908 3.2817 12.5879 3.28035 12.5796C3.2789 12.5707 3.27569 12.5494 3.27401 12.5197C3.27056 12.4589 3.27273 12.3506 3.31706 12.223L5.20625 12.8795C5.27062 12.6943 5.27763 12.5269 5.2708 12.4065C5.26444 12.2942 5.24398 12.1995 5.23667 12.1651C5.22445 12.1075 5.22917 12.1289 5.2314 12.145C5.23511 12.1717 5.24505 12.2556 5.22546 12.367L3.25566 12.0208ZM3.2909 12.3112C3.25674 12.4494 3.17876 12.5964 3.01649 12.8942L4.77272 13.8511C4.89453 13.6276 5.12313 13.2332 5.23241 12.7913L3.2909 12.3112ZM2.95703 13.0249C2.83274 13.36 2.85027 13.3691 2.79706 13.4642L4.54212 14.4413C4.69424 14.1696 4.81302 13.7721 4.83218 13.7205L2.95703 13.0249ZM2.78173 13.4926C2.91475 13.2359 3.12513 13.1325 3.21239 13.0987C3.294 13.0671 3.35215 13.0634 3.32429 13.0668L3.56768 15.052C3.62139 15.0454 3.7713 15.027 3.9343 14.9639C4.10295 14.8986 4.38435 14.7469 4.55745 14.4128L2.78173 13.4926ZM2.5277 13.6635C2.46811 13.8017 2.31176 14.1213 2.22659 14.434L4.15629 14.9596C4.19206 14.8283 4.24104 14.7411 4.36427 14.4553L2.5277 13.6635ZM2.19947 14.5703C2.16413 14.8474 2.15501 15.1271 2.17225 15.4059L4.16844 15.2825C4.15897 15.1293 4.16397 14.9757 4.1834 14.8233L2.19947 14.5703ZM2.17034 15.3442C2.17034 15.6112 2.25773 15.8142 2.30724 15.9159C2.3309 15.9645 2.35618 16.0097 2.36379 16.0235C2.37624 16.0461 2.37324 16.0414 2.36817 16.0306L4.17784 15.1791C4.15238 15.125 4.12635 15.0781 4.11573 15.0588C4.10027 15.0307 4.10243 15.0343 4.10552 15.0406C4.1139 15.0578 4.17034 15.1738 4.17034 15.3442L2.17034 15.3442ZM2.32783 15.9314C2.28687 15.8129 2.29185 15.7187 2.29425 15.6913C2.2953 15.6793 2.29628 15.6766 2.29332 15.6935C2.29186 15.7018 2.29014 15.7111 2.28731 15.7264C2.28479 15.7398 2.28114 15.7594 2.27756 15.7798L4.24736 16.126C4.24792 16.1228 4.27643 15.9818 4.28657 15.8664C4.29917 15.7231 4.29922 15.5129 4.21818 15.2783L2.32783 15.9314ZM3.14086 14.9603C2.73323 15.0103 2.51914 15.0146 2.35522 14.9658L1.78456 16.8827C2.39552 17.0645 2.99711 16.9929 3.38406 16.9455L3.14086 14.9603ZM2.65382 15.1124C2.77274 15.198 2.86614 15.3083 2.9306 15.4294C2.99051 15.542 3.0127 15.6402 3.02159 15.6884C3.02838 15.7253 3.03241 15.768 3.02832 15.7303C3.0268 15.7164 3.01907 15.6375 2.99386 15.5451L1.06435 16.0714C1.05342 16.0313 1.04755 15.9987 1.04445 15.9791C1.04285 15.9689 1.04177 15.9608 1.04112 15.9556C1.04047 15.9505 1.0401 15.9471 1.04006 15.9467C1.03823 15.9299 1.04415 15.9937 1.05473 16.051C1.0674 16.1197 1.09525 16.2378 1.16498 16.3689C1.23927 16.5085 1.34664 16.6358 1.48595 16.736L2.65382 15.1124ZM3.01434 15.637C3.00846 15.6032 3.0048 15.5787 3.00253 15.5595C3.00029 15.5404 3.00002 15.5314 3 15.5297C2.99994 15.5252 3.00152 15.5686 2.97706 15.6344L1.10224 14.9379C0.938625 15.3784 1.01319 15.8029 1.04387 15.9794L3.01434 15.637ZM2.99978 15.5657C3.06916 15.3275 3.13291 15.0907 3.19366 14.8653C3.25526 14.6367 3.31386 14.4194 3.37668 14.2036L1.45642 13.6445C1.38704 13.8828 1.32329 14.1195 1.26254 14.3449C1.20094 14.5735 1.14234 14.7909 1.07952 15.0066L2.99978 15.5657ZM3.10959 13.2032C3.0665 13.1617 3.02 13.1237 3.01918 13.123C3.00497 13.111 3.02918 13.1303 3.05867 13.1611C3.09094 13.1948 3.15173 13.2644 3.20369 13.3701C3.25948 13.4837 3.2942 13.6169 3.2942 13.7594H1.2942C1.2942 14.1536 1.49291 14.4177 1.61411 14.5443C1.66786 14.6004 1.71949 14.6432 1.73296 14.6545C1.75983 14.6771 1.74128 14.662 1.72351 14.645L3.10959 13.2032ZM3.29113 13.6811C3.28929 13.6576 3.2918 13.6294 3.29629 13.6111L1.35398 13.1342C1.29659 13.368 1.27942 13.6104 1.29727 13.8377L3.29113 13.6811ZM3.28617 13.6491C3.27381 13.6921 3.25879 13.7035 3.31676 13.6112C3.33692 13.5792 3.38172 13.5095 3.42008 13.4439C3.46187 13.3724 3.51321 13.2776 3.55843 13.1649L1.70219 12.4203C1.70326 12.4177 1.70436 12.4182 1.62339 12.547C1.56447 12.6408 1.43764 12.8406 1.3641 13.0962L3.28617 13.6491ZM3.57211 13.1288C3.63414 12.955 3.64701 12.8028 3.65185 12.7233C3.65384 12.6906 3.6555 12.6449 3.65566 12.6412C3.65632 12.6261 3.65638 12.632 3.65486 12.6454L1.66764 12.4197C1.66432 12.449 1.66215 12.4753 1.66065 12.4976C1.65916 12.5196 1.65821 12.5392 1.65756 12.554C1.65724 12.5615 1.65696 12.5685 1.65673 12.5741C1.65649 12.5803 1.65633 12.5844 1.65615 12.5888C1.6558 12.5973 1.65561 12.6006 1.65554 12.6019C1.65537 12.6046 1.65613 12.5892 1.6602 12.5645C1.6645 12.5385 1.67267 12.5008 1.68851 12.4564L3.57211 13.1288ZM3.66125 12.5326C3.66125 12.6375 3.62798 12.6992 3.63661 12.6811C3.64159 12.6706 3.65074 12.6531 3.67355 12.6128C3.68194 12.598 3.6991 12.5678 3.7115 12.5457C3.72586 12.5202 3.74279 12.4896 3.7603 12.4563L1.98973 11.5262C1.97628 11.5518 1.96339 11.5739 1.93254 11.6285C1.9067 11.6742 1.86813 11.743 1.8311 11.8208C1.7557 11.979 1.66125 12.2243 1.66125 12.5326H3.66125ZM3.72152 12.5236C3.75447 12.4712 3.78383 12.4209 3.8051 12.3843C3.8289 12.3435 3.84323 12.3188 3.85765 12.2954C3.88522 12.2506 3.88902 12.2511 3.8761 12.2644L2.4449 10.8673C2.30963 11.0059 2.21639 11.1464 2.15466 11.2467C2.12443 11.2957 2.09604 11.3448 2.07685 11.3778C2.05515 11.4151 2.04126 11.4385 2.02851 11.4588L3.72152 12.5236ZM3.79714 12.337C4.04637 12.1312 4.14221 11.8808 4.1714 11.8057C4.17784 11.7892 4.18716 11.7643 4.18775 11.7628C4.19074 11.7549 4.18985 11.7575 4.18713 11.7639C4.18137 11.7775 4.16128 11.8232 4.12231 11.8788L2.48417 10.7315C2.41461 10.8308 2.37159 10.9225 2.34607 10.9826C2.33347 11.0123 2.3235 11.0383 2.31765 11.0537C2.31517 11.0603 2.31152 11.07 2.31048 11.0728C2.3087 11.0775 2.30796 11.0794 2.30763 11.0802C2.30686 11.0822 2.31011 11.0737 2.31633 11.0601C2.32277 11.046 2.3339 11.0233 2.35044 10.9956C2.36723 10.9676 2.38973 10.9342 2.41922 10.8988C2.44897 10.8631 2.48378 10.8278 2.52386 10.7947L3.79714 12.337ZM4.17072 11.8026C4.15795 11.8249 4.14919 11.8356 4.16466 11.8142C4.17082 11.8057 4.21132 11.7511 4.24509 11.6994C4.3194 11.5856 4.46638 11.3349 4.46638 10.9858H2.46638C2.46638 10.7627 2.56237 10.6183 2.57041 10.606C2.57328 10.6016 2.57381 10.6011 2.56896 10.6079C2.56072 10.6194 2.56023 10.6199 2.54442 10.6417C2.52357 10.6705 2.47913 10.7321 2.43576 10.8077L4.17072 11.8026ZM4.45772 11.117C4.47411 10.9933 4.47209 10.8849 4.46672 10.8039C4.46161 10.727 4.4518 10.6559 4.44735 10.6224C4.44457 10.6015 4.44307 10.5902 4.44188 10.58C4.4408 10.5707 4.44068 10.5683 4.4408 10.5701C4.441 10.573 4.44307 10.6032 4.43728 10.6487L2.45328 10.3961C2.43765 10.519 2.43998 10.6265 2.44548 10.7067C2.45069 10.7828 2.46048 10.8536 2.46484 10.8863C2.46756 10.9068 2.46902 10.918 2.47015 10.9277C2.47119 10.9366 2.47125 10.9386 2.47111 10.9364C2.47085 10.9325 2.46884 10.9013 2.47503 10.8545L4.45772 11.117ZM4.44113 10.6134C4.47754 10.215 4.55671 9.83658 4.6443 9.34405L2.67519 8.99387C2.60106 9.41075 2.496 9.92179 2.44943 10.4314L4.44113 10.6134ZM4.42184 8.5215C4.3891 8.48296 4.35663 8.44946 4.34862 8.44109C4.33351 8.42531 4.3392 8.43095 4.34701 8.43998C4.35642 8.45086 4.38071 8.47976 4.40786 8.52328C4.43582 8.56811 4.46997 8.63338 4.49526 8.71773L2.57953 9.29216C2.64915 9.52433 2.77514 9.67996 2.83484 9.74893C2.86559 9.78445 2.8955 9.81535 2.90397 9.8242C2.91954 9.84046 2.91 9.83096 2.89765 9.81642L4.42184 8.5215ZM4.5141 9.21955C4.51693 9.20666 4.51936 9.19672 4.52587 9.16943C4.53168 9.14505 4.54004 9.10963 4.54849 9.06785L2.58818 8.67135C2.58679 8.67824 2.58495 8.68649 2.58039 8.70561C2.57653 8.72182 2.56841 8.75523 2.56069 8.79034L4.5141 9.21955ZM4.41373 8.33546L4.32232 8.19078L2.63153 9.25906L2.72294 9.40374L4.41373 8.33546ZM4.29963 9.29339C4.32998 9.24947 4.35923 9.204 4.37672 9.17702C4.39806 9.14408 4.40868 9.12802 4.41661 9.11674L2.78053 7.96641C2.74768 8.01313 2.71752 8.05974 2.69825 8.08947C2.67513 8.12516 2.66395 8.14237 2.65422 8.15645L4.29963 9.29339ZM4.18251 7.72977C4.16925 7.72023 4.15388 7.70881 4.12748 7.68926C4.10527 7.67282 4.07321 7.64912 4.04146 7.6268L2.89129 9.26299C2.94502 9.30076 2.91958 9.285 3.01464 9.35337L4.18251 7.72977ZM4.41073 8.77384C4.45043 8.65986 4.47044 8.55082 4.47686 8.5179C4.4882 8.45972 4.48632 8.47358 4.48044 8.49299C4.47258 8.5189 4.44344 8.60825 4.36521 8.70864C4.27715 8.82164 4.15747 8.90957 4.0246 8.95832L3.33568 7.08072C3.11105 7.16314 2.92509 7.30292 2.78766 7.47927C2.66005 7.64302 2.59843 7.80725 2.5664 7.91292C2.53635 8.01209 2.51861 8.11058 2.5138 8.13527C2.50406 8.18521 2.50764 8.15725 2.52203 8.11595L4.41073 8.77384ZM3.2755 8.934C3.31288 8.95054 3.34456 8.96196 3.36377 8.96858C3.38433 8.97566 3.40206 8.98113 3.41432 8.98479C3.42692 8.98855 3.43797 8.99166 3.44559 8.99378C3.45296 8.99583 3.46033 8.99783 3.46369 8.99874C3.4658 8.99932 3.46713 8.99968 3.46821 8.99997C3.46924 9.00026 3.46957 9.00035 3.46945 9.00032C3.46933 9.00028 3.46842 9.00003 3.46693 8.9996C3.46545 8.99917 3.46301 8.99845 3.45982 8.99747C3.45428 8.99578 3.44199 8.99195 3.42577 8.98614C3.41736 8.98313 3.40627 8.97901 3.39323 8.97375C3.38042 8.96858 3.36324 8.9613 3.34317 8.95179L4.19994 7.1446C4.15719 7.12433 4.12097 7.11073 4.0999 7.10318C4.07706 7.095 4.05742 7.08879 4.04404 7.0847C4.01912 7.07709 3.99551 7.07073 3.98905 7.06898C3.97606 7.06544 3.98049 7.06659 3.98679 7.06847C3.99102 7.06973 4.00118 7.07282 4.01487 7.07753C4.02719 7.08177 4.05267 7.09084 4.08478 7.10505L3.2755 8.934ZM4.76436 7.92845C4.75352 7.8386 4.74746 7.74135 4.73958 7.60783C4.73234 7.48517 4.72329 7.32636 4.70392 7.16536L2.71824 7.40422C2.7291 7.49457 2.73517 7.59213 2.74305 7.72565C2.75029 7.84833 2.75935 8.00709 2.77875 8.16794L4.76436 7.92845ZM4.68072 7.04027C4.64308 6.89098 4.63355 6.73731 4.65224 6.5857L2.66726 6.34107C2.61827 6.73853 2.6435 7.14094 2.74143 7.52931L4.68072 7.04027ZM4.47716 7.03943C4.39036 7.16261 4.28877 7.21473 4.24485 7.23263C4.22133 7.24222 4.20455 7.24625 4.19654 7.24788C4.18829 7.24957 4.18376 7.24985 4.18242 7.24992L4.07509 5.25281C3.79136 5.26805 3.20913 5.36685 2.84233 5.88733L4.47716 7.03943ZM4.34081 5.2741C4.20198 5.24398 4.04734 5.21985 3.96546 5.20557C3.86467 5.18799 3.80834 5.1753 3.76684 5.16223L3.16591 7.06981C3.33817 7.12408 3.50088 7.15473 3.62176 7.17582C3.76155 7.2002 3.83123 7.21008 3.91671 7.22862L4.34081 5.2741ZM4.46454 6.05552C4.46235 6.01926 4.46766 5.9642 4.50224 5.76516L2.53177 5.42278C2.50588 5.57178 2.44931 5.86475 2.46821 6.17652L4.46454 6.05552ZM4.48233 5.85502C4.55847 5.57346 4.57405 5.30905 4.58228 5.12551C4.59182 4.91245 4.59261 4.81388 4.60851 4.70477L2.62942 4.41632C2.59469 4.65458 2.59021 4.9037 2.58428 5.03601C2.57703 5.19784 2.56695 5.27645 2.55168 5.33292L4.48233 5.85502ZM4.50351 5.02699C4.36363 5.29225 4.13503 5.39796 4.00723 5.43284C3.88672 5.46573 3.79477 5.45738 3.74388 5.44858L4.0847 3.47783C3.92201 3.4497 3.70806 3.44134 3.48067 3.5034C3.24599 3.56745 2.92562 3.7315 2.73441 4.0941L4.50351 5.02699ZM3.76547 5.45207C4.15562 5.51079 4.509 5.38943 4.59167 5.36538L4.0329 3.44502C4.01511 3.45019 4.0015 3.45417 3.98794 3.45804C3.97487 3.46177 3.96456 3.46463 3.95585 3.46694C3.93788 3.47172 3.93171 3.47283 3.93271 3.47264C3.93409 3.47239 3.9854 3.46264 4.06312 3.47434L3.76547 5.45207ZM5.31229 4.4052C5.31229 4.42412 5.31138 4.43577 5.31192 4.42658C5.3123 4.42017 5.31229 4.42077 5.31303 4.40865C5.31354 4.40023 5.31427 4.38789 5.31491 4.37395C5.31615 4.34708 5.31762 4.30378 5.31581 4.25272C5.314 4.20182 5.3086 4.13109 5.2919 4.04963L3.33267 4.45141C3.32663 4.42195 3.32302 4.3962 3.32078 4.37532C3.31855 4.35444 3.31754 4.33689 3.31707 4.32366C3.31618 4.2986 3.31703 4.28197 3.31704 4.28177C3.31707 4.28116 3.31703 4.28216 3.31673 4.28699C3.31658 4.28951 3.31643 4.29182 3.31619 4.29568C3.31598 4.29913 3.3157 4.30365 3.31542 4.30848C3.31485 4.31796 3.31409 4.33157 3.31348 4.34705C3.31286 4.36259 3.31229 4.38251 3.31229 4.4052H5.31229ZM5.28439 4.01595C5.24776 3.86419 5.24871 3.66975 5.29534 3.41976L3.32923 3.05309C3.25351 3.45916 3.21367 3.96079 3.34019 4.48509L5.28439 4.01595ZM5.29439 3.42475C5.3485 3.14258 5.4545 2.9536 5.57859 2.84308L4.24839 1.34957C3.70026 1.83777 3.4392 2.47953 3.33018 3.0481L5.29439 3.42475ZM5.58514 2.8372C5.57817 2.84352 5.58723 2.8331 5.62198 2.82174C5.65643 2.81047 5.69782 2.80449 5.73649 2.80576L5.802 0.806835C5.29087 0.790085 4.69481 0.944814 4.24185 1.35545L5.58514 2.8372ZM5.76925 2.8063C5.47424 2.8063 5.29025 2.65577 5.26435 2.63449C5.25617 2.62776 5.24339 2.61603 5.28017 2.64972C5.30284 2.67049 5.3603 2.72322 5.43441 2.77593L6.59348 1.14603C6.62682 1.16973 6.64604 1.18862 6.63111 1.17495C6.63029 1.1742 6.58055 1.12743 6.53413 1.08928C6.43177 1.00517 6.16622 0.806298 5.76925 0.806298V2.8063ZM6.702 2.68664C6.72972 2.66036 6.82501 2.57254 6.90729 2.4697L5.34562 1.22023C5.35379 1.21001 5.35985 1.20323 5.36249 1.20034C5.36517 1.1974 5.36587 1.19678 5.3636 1.19907C5.36133 1.20136 5.35743 1.20522 5.35084 1.21156C5.34399 1.21815 5.33657 1.2252 5.32589 1.23532L6.702 2.68664ZM7.08115 1.54739C7.06221 1.48663 7.04091 1.42638 7.02852 1.39083C7.01369 1.34827 7.00607 1.32554 7.0007 1.30746C6.99573 1.29069 6.99689 1.29156 6.99889 1.304C7.00103 1.31728 7.00495 1.34864 7.00227 1.39276L5.00594 1.27175C4.99037 1.52852 5.0444 1.74529 5.08345 1.87677C5.10357 1.94453 5.1253 2.00705 5.13988 2.04888C5.15689 2.09771 5.16503 2.12096 5.17176 2.14255L7.08115 1.54739ZM7.00272 1.38492C7.00805 1.28369 7.02736 1.20155 7.05142 1.14291C7.07438 1.08696 7.09738 1.06171 7.11122 1.04992L5.81392 -0.472257C5.22862 0.0265768 5.03461 0.727431 5.00549 1.2796L7.00272 1.38492ZM8.95423 3.7494C8.97104 3.76534 8.95144 3.74675 8.9657 3.76028C8.9703 3.76463 8.96461 3.75924 8.96857 3.763C8.9693 3.76369 8.9683 3.76274 8.96899 3.76339C8.96926 3.76365 8.96906 3.76346 8.96929 3.76368C8.96939 3.76377 8.9693 3.76369 8.96939 3.76377C8.96956 3.76393 8.96931 3.7637 8.96947 3.76385C8.96971 3.76407 8.96928 3.76367 8.96951 3.76389C8.96951 3.76389 8.96952 3.76389 8.96952 3.76389C8.96952 3.76389 8.96952 3.76389 8.96952 3.76389C8.96952 3.7639 8.96952 3.7639 8.96952 3.7639C8.96953 3.7639 8.96953 3.7639 8.96953 3.7639C8.96953 3.7639 8.96953 3.7639 8.96953 3.7639C8.96953 3.7639 8.96953 3.7639 9.65758 3.03824C10.3456 2.31258 10.3456 2.31258 10.3456 2.31258C10.3456 2.31258 10.3456 2.31258 10.3456 2.31258C10.3456 2.31258 10.3456 2.31258 10.3456 2.31258C10.3456 2.31258 10.3456 2.31258 10.3456 2.31258C10.3456 2.31258 10.3456 2.31258 10.3456 2.31258C10.3456 2.31258 10.3456 2.31258 10.3456 2.31257C10.3456 2.31257 10.3456 2.31257 10.3456 2.31257C10.3456 2.31257 10.3456 2.31257 10.3456 2.31257C10.3456 2.31255 10.3456 2.31257 10.3456 2.31255C10.3456 2.31254 10.3456 2.31254 10.3456 2.31253C10.3454 2.31238 10.3456 2.31254 10.3454 2.31236C10.3453 2.31223 10.3453 2.31223 10.3451 2.31207C10.344 2.31102 10.3461 2.31304 10.345 2.31198C10.345 2.31198 10.345 2.31197 10.345 2.31196C10.345 2.31195 10.345 2.31195 10.345 2.31194C10.3448 2.3118 10.345 2.31203 10.3449 2.31189C10.3439 2.31091 10.3458 2.31277 10.3448 2.31179C10.3448 2.31175 10.3447 2.31172 10.3447 2.31168C10.3404 2.30764 10.3479 2.31474 10.3435 2.31054C10.3431 2.31015 10.3424 2.30951 10.3418 2.30896C10.3416 2.3088 10.341 2.30819 10.3408 2.30799C10.3392 2.30652 10.3413 2.30843 10.3397 2.30692C10.3395 2.30679 10.3395 2.30676 10.3394 2.30663C10.3393 2.30657 10.3393 2.30655 10.3392 2.30649C10.3391 2.3064 10.3391 2.30643 10.339 2.30634C10.339 2.3063 10.3389 2.30622 10.3389 2.30619C10.3387 2.30603 10.3389 2.30619 10.3387 2.30604C10.3353 2.30277 10.3419 2.309 10.3384 2.30573C10.3345 2.30202 10.3417 2.30881 10.3377 2.30509C10.3364 2.30387 10.3383 2.30566 10.337 2.30443C10.3366 2.30402 10.3367 2.30415 10.3363 2.30373C10.3363 2.30369 10.3356 2.30307 10.3355 2.30301C10.3351 2.30256 10.3344 2.30197 10.3339 2.30148C10.3325 2.30013 10.3337 2.30123 10.3322 2.29984C10.3302 2.29797 10.3323 2.29998 10.3303 2.29808L8.95423 3.7494C8.97104 3.76534 8.95144 3.74675 8.9657 3.76028C8.9703 3.76463 8.96461 3.75924 8.96857 3.763C8.9693 3.76369 8.9683 3.76274 8.96899 3.76339C8.96926 3.76365 8.96906 3.76346 8.96929 3.76368C8.96939 3.76377 8.9693 3.76369 8.96939 3.76377C8.96956 3.76393 8.96931 3.7637 8.96947 3.76385C8.96971 3.76407 8.96928 3.76367 8.96951 3.76389C8.96951 3.76389 8.96952 3.76389 8.96952 3.76389C8.96952 3.76389 8.96952 3.76389 8.96952 3.76389C8.96952 3.7639 8.96952 3.7639 8.96952 3.7639C8.96953 3.7639 8.96953 3.7639 8.96953 3.7639C8.96953 3.7639 8.96953 3.7639 8.96953 3.7639C8.96953 3.7639 8.96953 3.7639 9.65758 3.03824C10.3456 2.31258 10.3456 2.31258 10.3456 2.31258C10.3456 2.31258 10.3456 2.31258 10.3456 2.31258C10.3456 2.31258 10.3456 2.31258 10.3456 2.31258C10.3456 2.31258 10.3456 2.31258 10.3456 2.31258C10.3456 2.31258 10.3456 2.31258 10.3456 2.31258C10.3456 2.31258 10.3456 2.31258 10.3456 2.31257C10.3456 2.31257 10.3456 2.31257 10.3456 2.31257C10.3456 2.31257 10.3456 2.31257 10.3456 2.31257C10.3456 2.31255 10.3456 2.31257 10.3456 2.31255C10.3456 2.31254 10.3456 2.31254 10.3456 2.31253C10.3454 2.31238 10.3456 2.31254 10.3454 2.31236C10.3453 2.31223 10.3453 2.31223 10.3451 2.31207C10.344 2.31102 10.3461 2.31304 10.345 2.31198C10.345 2.31198 10.345 2.31197 10.345 2.31196C10.345 2.31195 10.345 2.31195 10.345 2.31194C10.3448 2.3118 10.345 2.31203 10.3449 2.31189C10.3439 2.31091 10.3458 2.31277 10.3448 2.31179C10.3448 2.31175 10.3447 2.31172 10.3447 2.31168C10.3404 2.30764 10.3479 2.31474 10.3435 2.31054C10.3431 2.31015 10.3424 2.30951 10.3418 2.30896C10.3416 2.3088 10.341 2.30819 10.3408 2.30799C10.3392 2.30652 10.3413 2.30843 10.3397 2.30692C10.3395 2.30679 10.3395 2.30676 10.3394 2.30663C10.3393 2.30657 10.3393 2.30655 10.3392 2.30649C10.3391 2.3064 10.3391 2.30643 10.339 2.30634C10.339 2.3063 10.3389 2.30622 10.3389 2.30619C10.3387 2.30603 10.3389 2.30619 10.3387 2.30604C10.3353 2.30277 10.3419 2.309 10.3384 2.30573C10.3345 2.30202 10.3417 2.30881 10.3377 2.30509C10.3364 2.30387 10.3383 2.30566 10.337 2.30443C10.3366 2.30402 10.3367 2.30415 10.3363 2.30373C10.3363 2.30369 10.3356 2.30307 10.3355 2.30301C10.3351 2.30256 10.3344 2.30197 10.3339 2.30148C10.3325 2.30013 10.3337 2.30123 10.3322 2.29984C10.3302 2.29797 10.3323 2.29998 10.3303 2.29808L8.95423 3.7494ZM8.79555 3.18773C8.79847 3.20769 8.80141 3.22523 8.80301 3.2347C8.80413 3.24136 8.80431 3.24238 8.80499 3.24644C8.80522 3.24777 8.80537 3.24869 8.80548 3.24936C8.80559 3.25003 8.80564 3.25031 8.80563 3.2503C8.80563 3.25029 8.80557 3.24991 8.80547 3.24922C8.80536 3.24853 8.8052 3.24746 8.80501 3.24607C8.80462 3.24335 8.80404 3.239 8.80339 3.23339C8.80213 3.22248 8.80033 3.20428 8.79945 3.18089C8.79568 3.08074 8.80926 2.87059 8.95645 2.66126L10.5925 3.81159C10.7805 3.54426 10.8043 3.2711 10.798 3.10561C10.7952 3.02936 10.7856 2.96641 10.7809 2.93678C10.7786 2.92211 10.7759 2.90623 10.7751 2.90198C10.7739 2.89461 10.7741 2.8953 10.7745 2.89842L8.79555 3.18773ZM9.41771 2.30224C9.4658 2.28387 9.50214 2.27545 9.50971 2.2737C9.51418 2.27267 9.51616 2.2723 9.51105 2.27336C9.50947 2.27369 9.49505 2.27664 9.48427 2.27894C9.46012 2.28409 9.40927 2.29522 9.34971 2.31405C9.28825 2.33347 9.20699 2.3642 9.1186 2.41426L10.1041 4.1546C10.041 4.19032 9.98648 4.21031 9.95244 4.22106C9.93527 4.22649 9.92167 4.23007 9.91346 4.23212C9.90545 4.23411 9.90051 4.23514 9.90156 4.23492C9.902 4.23483 9.9031 4.23459 9.90581 4.23403C9.90719 4.23375 9.90854 4.23347 9.91049 4.23307C9.91228 4.2327 9.91452 4.23224 9.91688 4.23175C9.92575 4.22991 9.94161 4.2266 9.9598 4.2224C9.97835 4.21812 10.003 4.21208 10.0311 4.20399C10.0594 4.19586 10.0935 4.18504 10.1313 4.17062L9.41771 2.30224ZM9.61135 4.28443C9.65517 4.28443 9.92593 4.29483 10.1098 4.28201L9.97073 2.28685C9.86774 2.29403 9.85301 2.28443 9.61135 2.28443V4.28443ZM10.2887 4.25309C10.5351 4.18989 10.7724 4.03967 10.933 3.79634C11.075 3.58119 11.1059 3.36971 11.1144 3.25832C11.1231 3.1455 11.1139 3.04895 11.1114 3.02052C11.1056 2.95543 11.1106 3.0038 11.1106 3.04308H9.1106C9.1106 3.09344 9.11382 3.13572 9.11551 3.15629C9.11646 3.1678 9.11743 3.17822 9.11802 3.18456C9.11876 3.19249 9.11899 3.19495 9.11929 3.19825C9.12104 3.21784 9.11525 3.17143 9.12028 3.10569C9.1252 3.04138 9.14549 2.87395 9.26383 2.69466C9.40076 2.48718 9.60132 2.36464 9.79189 2.31577L10.2887 4.25309ZM10.8505 2.37037C10.4806 1.96352 9.99596 1.99442 9.85993 2.00806C9.68992 2.0251 9.52739 2.07664 9.50853 2.08206L10.0615 4.00409C10.1446 3.98018 10.1097 3.99304 10.0594 3.99809C10.027 4.00134 9.93824 4.00788 9.82129 3.98112C9.69382 3.95194 9.519 3.87891 9.37069 3.71579L10.8505 2.37037ZM8.70778 4.14232C8.67402 4.10721 8.65693 4.08048 8.65531 4.07795C8.65463 4.0769 8.65849 4.08286 8.67637 4.11568C8.68893 4.13872 8.71978 4.19644 8.75237 4.25084C8.78687 4.30842 8.83979 4.39086 8.91318 4.4765L10.4319 3.17512C10.4596 3.20743 10.4719 3.22937 10.468 3.22288C10.4622 3.21321 10.4569 3.2033 10.4326 3.15875C10.4136 3.12398 10.38 3.06239 10.3383 2.99744C10.2957 2.93101 10.234 2.84402 10.1493 2.75591L8.70778 4.14232ZM10.4507 4.45383C10.5325 4.35244 10.6271 4.21933 10.661 4.17378C10.711 4.10655 10.7343 4.0811 10.748 4.0681L9.37192 2.61678C9.23304 2.74845 9.12904 2.88235 9.05674 2.97947C8.9683 3.09826 8.9454 3.1345 8.89432 3.1978L10.4507 4.45383ZM10.1146 2.34393C9.97975 2.33655 9.84284 2.34031 9.77141 2.34128C9.68254 2.34249 9.64414 2.34113 9.61885 2.33837L9.40134 4.3265C9.55887 4.34374 9.704 4.34238 9.79865 4.34109C9.91074 4.33957 9.95736 4.33832 10.0053 4.34094L10.1146 2.34393ZM8.72926 2.7077C8.67996 2.76932 8.64313 2.8266 8.63195 2.84371C8.61455 2.87034 8.62511 2.85315 8.64075 2.83315L10.2163 4.06507C10.2408 4.03371 10.2607 4.00562 10.2754 3.9841C10.289 3.96412 10.3015 3.94489 10.3061 3.93784C10.3204 3.91594 10.3093 3.93422 10.2909 3.95717L8.72926 2.7077Z" fill="white" mask="url(#path-1-inside-1_4303_9221)"/>
</g>
</g>
<defs>
<clipPath id="clip0_4303_9221">
<rect width="16" height="16" fill="white"/>
</clipPath>
</defs>
</svg>
