<svg width="16" height="16" viewBox="0 0 24 24" fill="none" xmlns="http://www.w3.org/2000/svg">
<g id="Group">
<path id="Vector" d="M23.25 0.75L18 6" stroke="white" stroke-linecap="round" stroke-linejoin="round"/>
<path id="Vector_2" d="M10.005 13.9966L3.47852 20.5231" stroke="white" stroke-linecap="round" stroke-linejoin="round"/>
<path id="Vector_3" d="M10.0035 13.9964C10.0035 13.9964 14.067 7.03189 14.9505 6.14989C15.3355 5.72658 15.8727 5.47311 16.4442 5.445C17.0158 5.41688 17.5752 5.61641 18 5.99989C18.3834 6.42465 18.583 6.98406 18.5548 7.55562C18.5267 8.12719 18.2733 8.66432 17.85 9.04939C16.9665 9.93289 10.002 13.9994 10.002 13.9994" stroke="white" stroke-linecap="round" stroke-linejoin="round"/>
<path id="Vector_4" d="M1.61632 19.1296L3.47782 20.5231L4.87132 22.3846C5.12323 22.7218 5.46848 22.9778 5.86436 23.1209C6.26025 23.2639 6.68939 23.2877 7.09868 23.1894C7.50796 23.0911 7.87944 22.8749 8.16713 22.5676C8.45483 22.2603 8.64612 21.8755 8.71732 21.4606L10.0043 13.9966L2.54032 15.2836C2.12546 15.3548 1.74057 15.5461 1.43329 15.8338C1.12602 16.1215 0.90984 16.4929 0.811508 16.9022C0.713177 17.3115 0.737009 17.7407 0.880055 18.1365C1.0231 18.5324 1.27908 18.8777 1.61632 19.1296V19.1296Z" stroke="white" stroke-linecap="round" stroke-linejoin="round"/>
</g>
</svg>