<svg width="16" height="16" viewBox="0 0 16 16" fill="none" xmlns="http://www.w3.org/2000/svg">
<g id="Group">
<path id="Vector" d="M15.5 14.8481C15.5 15.021 15.4313 15.1869 15.309 15.3092C15.1868 15.4314 15.0209 15.5001 14.848 15.5001H1.152C0.979079 15.5001 0.81324 15.4314 0.690966 15.3092C0.568693 15.1869 0.5 15.021 0.5 14.8481V1.15212C0.5 0.979201 0.568693 0.813362 0.690966 0.691088C0.81324 0.568815 0.979079 0.500122 1.152 0.500122H8.84267C8.92913 0.500188 9.01205 0.534461 9.07333 0.595455L9.95667 1.47812L10.208 0.722789C10.2299 0.658023 10.2714 0.601724 10.3269 0.56179C10.3824 0.521857 10.449 0.500292 10.5173 0.500122H14.8507C14.9363 0.500122 15.0211 0.516987 15.1002 0.549753C15.1793 0.582519 15.2512 0.630545 15.3117 0.691088C15.3722 0.751632 15.4203 0.823508 15.453 0.902612C15.4858 0.981717 15.5027 1.0665 15.5027 1.15212L15.5 14.8481Z" stroke="white" stroke-linecap="round" stroke-linejoin="round"/>
<path id="Vector_2" d="M10.1046 3.25679C10.054 3.27611 10.009 3.30774 9.97371 3.34882C9.93839 3.3899 9.91386 3.43913 9.90235 3.49207C9.89083 3.54501 9.89269 3.59998 9.90776 3.65202C9.92283 3.70406 9.95063 3.75153 9.98864 3.79012L12.518 6.32346C12.5573 6.3628 12.606 6.39145 12.6594 6.40667C12.7129 6.42189 12.7694 6.42318 12.8235 6.41042C12.8776 6.39766 12.9276 6.37127 12.9686 6.33376C13.0096 6.29626 13.0404 6.24887 13.058 6.19612L13.8 3.97679C13.8212 3.91351 13.8224 3.84525 13.8036 3.78123C13.7848 3.71721 13.7467 3.66051 13.6946 3.61879L12.3866 2.57212C12.3424 2.53699 12.2898 2.51387 12.234 2.50499C12.1781 2.49612 12.121 2.50179 12.068 2.52146L10.1046 3.25679Z" stroke="white" stroke-linecap="round" stroke-linejoin="round"/>
<path id="Vector_3" d="M2.15599 3.51079C2.11863 3.46879 2.09276 3.41785 2.08089 3.36291C2.06903 3.30796 2.07157 3.25088 2.08828 3.19721C2.10498 3.14354 2.13528 3.0951 2.17623 3.0566C2.21718 3.01809 2.26739 2.99083 2.32199 2.97746L4.24932 2.49546C4.2998 2.4827 4.35258 2.48209 4.40334 2.49367C4.4541 2.50526 4.50139 2.52872 4.54132 2.56212L13.7373 10.4948C13.778 10.5299 13.8093 10.5745 13.8286 10.6246C13.8479 10.6747 13.8546 10.7288 13.848 10.7821L13.5747 12.9661C13.5659 13.0381 13.5334 13.105 13.4821 13.1562C13.4309 13.2075 13.3639 13.2401 13.292 13.2488L11.1067 13.5221C11.0537 13.5287 11 13.5222 10.9502 13.5033C10.9003 13.4843 10.8559 13.4535 10.8207 13.4135L2.15599 3.51079Z" stroke="white" stroke-linecap="round" stroke-linejoin="round"/>
<path id="Vector_4" d="M3.232 9.76144C3.25396 9.71182 3.28796 9.66846 3.33092 9.63531C3.37388 9.60216 3.42443 9.58025 3.47799 9.57157C3.53156 9.5629 3.58644 9.56774 3.63767 9.58564C3.68889 9.60354 3.73484 9.63395 3.77133 9.6741L6.37133 12.5354C6.40717 12.5748 6.43282 12.6224 6.44603 12.674C6.45924 12.7256 6.45962 12.7796 6.44712 12.8314C6.43462 12.8831 6.40964 12.931 6.37434 12.9709C6.33905 13.0108 6.29453 13.0414 6.24467 13.0601L4.26667 13.8001C4.21276 13.8204 4.15442 13.8261 4.09761 13.8165C4.0408 13.8069 3.98756 13.7824 3.94333 13.7454L2.32 12.4001C2.26543 12.3548 2.22716 12.2929 2.21103 12.2238C2.19491 12.1547 2.2018 12.0822 2.23067 12.0174L3.232 9.76144Z" stroke="white" stroke-linecap="round" stroke-linejoin="round"/>
</g>
</svg>
