<svg width="18" height="18" viewBox="0 0 18 18" fill="none" xmlns="http://www.w3.org/2000/svg">
<path d="M10.6068 5.28861C10.5715 5.3021 10.5401 5.32419 10.5154 5.35287C10.4908 5.38156 10.4737 5.41593 10.4656 5.4529C10.4576 5.48986 10.4589 5.52824 10.4694 5.56458C10.4799 5.60092 10.4993 5.63406 10.5259 5.66101L12.2913 7.42988C12.3187 7.45735 12.3527 7.47735 12.39 7.48798C12.4273 7.4986 12.4667 7.49951 12.5045 7.4906C12.5423 7.48169 12.5772 7.46326 12.6058 7.43707C12.6344 7.41088 12.6559 7.3778 12.6682 7.34097L13.1861 5.79135C13.2009 5.74716 13.2018 5.6995 13.1886 5.6548C13.1755 5.61009 13.1489 5.5705 13.1126 5.54138L12.1996 4.81055C12.1687 4.78602 12.132 4.76988 12.093 4.76368C12.0541 4.75748 12.0142 4.76144 11.9772 4.77518L10.6068 5.28861Z" stroke="white" stroke-linecap="round" stroke-linejoin="round"/>
<path d="M5.05883 5.46596C5.03275 5.43663 5.01469 5.40106 5.00641 5.3627C4.99813 5.32434 4.9999 5.28448 5.01156 5.24701C5.02322 5.20953 5.04437 5.17571 5.07295 5.14882C5.10154 5.12194 5.13658 5.1029 5.17469 5.09356L6.51993 4.75701C6.55516 4.7481 6.592 4.74768 6.62743 4.75577C6.66285 4.76386 6.69586 4.78024 6.72374 4.80356L13.1423 10.3424C13.1707 10.367 13.1926 10.3981 13.2061 10.4331C13.2195 10.4681 13.2242 10.5059 13.2196 10.5431L13.0288 12.068C13.0227 12.1183 13 12.165 12.9642 12.2008C12.9284 12.2366 12.8817 12.2593 12.8315 12.2654L11.3062 12.4562C11.2693 12.4608 11.2318 12.4563 11.197 12.4431C11.1622 12.4299 11.1312 12.4083 11.1066 12.3804L5.05883 5.46596Z" stroke="white" stroke-linecap="round" stroke-linejoin="round"/>
<path d="M5.8099 9.83041C5.82523 9.79576 5.84896 9.76549 5.87894 9.74234C5.90892 9.7192 5.94421 9.7039 5.9816 9.69784C6.01898 9.69179 6.05729 9.69516 6.09304 9.70766C6.1288 9.72016 6.16087 9.74139 6.18634 9.76943L8.00108 11.7673C8.0261 11.7948 8.044 11.828 8.05322 11.8641C8.06244 11.9001 8.0627 11.9378 8.05398 11.9739C8.04526 12.0101 8.02782 12.0435 8.00319 12.0714C7.97855 12.0992 7.94748 12.1206 7.91267 12.1337L6.53207 12.6504C6.49445 12.6646 6.45373 12.6685 6.41407 12.6618C6.37442 12.6551 6.33726 12.638 6.30639 12.6122L5.17334 11.6728C5.13525 11.6412 5.10854 11.5979 5.09728 11.5497C5.08603 11.5015 5.09084 11.4509 5.11099 11.4056L5.8099 9.83041Z" stroke="white" stroke-linecap="round" stroke-linejoin="round"/>
<path d="M9.0002 1C6.50073 2 5.00129 2.5 1.00356 3.73913C0.970462 8 1.00356 15 9.0002 17" stroke="white" stroke-linecap="round" stroke-linejoin="round"/>
<path d="M8.9998 1C11.4993 2 12.9987 2.5 16.9964 3.73913C17.0295 8 16.9964 15 8.9998 17" stroke="white" stroke-linecap="round" stroke-linejoin="round"/>
</svg>