<svg width="16" height="16" viewBox="0 0 16 16" fill="none" xmlns="http://www.w3.org/2000/svg">
<g clip-path="url(#clip0_13064_122478)">
<path d="M12 11.5C13.3807 11.5 14.5 10.3807 14.5 9C14.5 7.61929 13.3807 6.5 12 6.5C10.6193 6.5 9.5 7.61929 9.5 9C9.5 10.3807 10.6193 11.5 12 11.5Z" stroke="white" stroke-linecap="round" stroke-linejoin="round"/>
<path d="M3.18359 8.84717L7.15159 12.8152" stroke="white" stroke-linecap="round" stroke-linejoin="round"/>
<path d="M14.5871 5.38013L15.0871 4.88013C15.2177 4.75005 15.3214 4.59546 15.3921 4.42523C15.4628 4.25499 15.4992 4.07247 15.4992 3.88813C15.4992 3.70379 15.4628 3.52127 15.3921 3.35103C15.3214 3.1808 15.2177 3.02621 15.0871 2.89613L13.1041 0.911129C12.974 0.780511 12.8194 0.676868 12.6492 0.606148C12.479 0.535428 12.2964 0.499023 12.1121 0.499023C11.9278 0.499023 11.7452 0.535428 11.575 0.606148C11.4048 0.676868 11.2502 0.780511 11.1201 0.911129L8.3891 3.64213M3.1841 8.84713C2.1921 9.83913 3.1531 10.8621 2.1921 11.8231L0.7041 13.3111C0.638791 13.3762 0.586969 13.4535 0.551609 13.5386C0.516249 13.6237 0.498047 13.715 0.498047 13.8071C0.498047 13.8993 0.516249 13.9906 0.551609 14.0757C0.586969 14.1608 0.638791 14.2381 0.7041 14.3031L1.6991 15.3001C1.76414 15.3654 1.84143 15.4173 1.92655 15.4526C2.01167 15.488 2.10293 15.5062 2.1951 15.5062C2.28727 15.5062 2.37853 15.488 2.46365 15.4526C2.54877 15.4173 2.62606 15.3654 2.6911 15.3001L4.1791 13.8121C5.1401 12.8511 6.1941 13.7811 7.1551 12.8201L8.3891 11.5771" stroke="white" stroke-linecap="round" stroke-linejoin="round"/>
<path d="M4.62 0C7.17 0 9.24 2.08 9.24 4.65C9.24 7.22 7.17 9.3 4.62 9.3C2.07 9.3 0 7.21 0 4.65C0 2.09 2.07 0 4.62 0ZM7.32 3.72H5.54V1.93C5.54 1.76 5.41 1.63 5.24 1.63H3.99C3.82 1.63 3.69 1.76 3.69 1.93V3.72H1.91C1.74 3.72 1.61 3.85 1.61 4.02V5.28C1.61 5.45 1.74 5.58 1.91 5.58H3.69V7.37C3.69 7.54 3.82 7.67 3.99 7.67H5.24C5.41 7.67 5.54 7.54 5.54 7.37V5.58H7.32C7.49 5.58 7.62 5.45 7.62 5.28V4.02C7.62 3.85 7.49 3.72 7.32 3.72Z" fill="white"/>
</g>
<defs>
<clipPath id="clip0_13064_122478">
<rect width="16" height="16" fill="white"/>
</clipPath>
</defs>
</svg>
