<svg width="16" height="16" viewBox="0 0 16 16" fill="none" xmlns="http://www.w3.org/2000/svg">
<g clip-path="url(#clip0_13065_122701)">
<path d="M12.9763 6.01172H11.7508L9.66992 9.96135H10.7496L11.0741 9.27311H12.4223L12.5174 9.96135H13.6195L12.9763 6.01172ZM11.4603 8.44535L12.1485 7.00775L12.333 8.44535H11.4603Z" fill="white"/>
<path d="M4.04386 6.88442H5.89012L6.04114 6.01172H3.08702L2.37109 9.98904H3.47895L3.75853 8.46208H5.25258L5.39785 7.6061H3.91531L4.04386 6.88442Z" fill="white"/>
<path d="M10.2084 7.6061H8.72585L8.85441 6.88442H10.7007L10.8517 6.01172H7.89757L7.18164 9.98904H8.2895L8.56908 8.46208H10.0626L10.2084 7.6061Z" fill="white"/>
<path d="M6.41199 6.01172L5.70703 9.98904H6.81437L7.5141 6.01172H6.41199Z" fill="white"/>
<path d="M8 15.5C12.1421 15.5 15.5 12.1421 15.5 8C15.5 3.85786 12.1421 0.5 8 0.5C3.85786 0.5 0.5 3.85786 0.5 8C0.5 12.1421 3.85786 15.5 8 15.5Z" stroke="white" stroke-miterlimit="10"/>
</g>
<defs>
<clipPath id="clip0_13065_122701">
<rect width="16" height="16" fill="white"/>
</clipPath>
</defs>
</svg>
