<svg width="16" height="16" viewBox="0 0 24 24" fill="none" xmlns="http://www.w3.org/2000/svg">
<path d="M18 9.75C19.2426 9.75 20.25 8.74264 20.25 7.5C20.25 6.25736 19.2426 5.25 18 5.25C16.7574 5.25 15.75 6.25736 15.75 7.5C15.75 8.74264 16.7574 9.75 18 9.75Z" stroke="white" stroke-miterlimit="10" stroke-linecap="square" stroke-linejoin="round"/>
<path d="M14.25 4.5C15.4926 4.5 16.5 3.49264 16.5 2.25C16.5 1.00736 15.4926 0 14.25 0C13.0074 0 12 1.00736 12 2.25C12 3.49264 13.0074 4.5 14.25 4.5Z" fill="white"/>
<path d="M12.75 9.75L0.75 21.75" stroke="white" stroke-miterlimit="10" stroke-linecap="round" stroke-linejoin="round"/>
<path d="M20.25 17.25L9.75 6.75V2.25" stroke="white" stroke-miterlimit="10" stroke-linecap="round" stroke-linejoin="round"/>
<path d="M8.25 23.25L12 19.506L10.5 17.9895" stroke="white" stroke-miterlimit="10" stroke-linecap="round" stroke-linejoin="round"/>
<path d="M7.5 15L10.5 17.9895L15.738 12.738" stroke="white" stroke-miterlimit="10" stroke-linecap="round" stroke-linejoin="round"/>
</svg>