<svg width="16" height="16" viewBox="0 0 16 16" xmlns="http://www.w3.org/2000/svg" fill="none"><g><path d="M14.1057 10.1002L8.90575 12.3292L3.31875 2.01017C3.12625 1.66619 2.8061 1.4118 2.42751 1.30202C2.04893 1.19225 1.64235 1.2359 1.2957 1.42355C0.949048 1.6112 0.690194 1.92775 0.575115 2.30476C0.460036 2.68177 0.497983 3.08892 0.680748 3.43817L7.49975 15.5002H14.4997C14.765 15.5002 15.0193 15.3948 15.2069 15.2073C15.3944 15.0197 15.4997 14.7654 15.4997 14.5002V11.0172C15.4994 10.8519 15.4581 10.6892 15.3795 10.5438C15.3009 10.3984 15.1874 10.2747 15.0493 10.1838C14.9112 10.093 14.7527 10.0378 14.5881 10.0232C14.4234 10.0086 14.2577 10.035 14.1057 10.1002Z" stroke="#FFFFFF" stroke-linecap="round" stroke-linejoin="round"/><path d="M12 4.5C13.933 4.5 15.5 4.05228 15.5 3.5C15.5 2.94772 13.933 2.5 12 2.5C10.067 2.5 8.5 2.94772 8.5 3.5C8.5 4.05228 10.067 4.5 12 4.5Z" stroke="#FFFFFF" stroke-linecap="round" stroke-linejoin="round"/><path d="M8.5 3.5V5.5C8.5 6.052 10.067 6.5 12 6.5C13.933 6.5 15.5 6.052 15.5 5.5V3.5" stroke="#FFFFFF" stroke-linecap="round" stroke-linejoin="round"/></g></svg>
