<svg width="16" height="16" viewBox="0 0 16 16" fill="none" xmlns="http://www.w3.org/2000/svg">
<path d="M9.33366 15.3333V13.3333C9.3326 12.98 9.19179 12.6414 8.94197 12.3916C8.69215 12.1418 8.35362 12.001 8.00033 11.9999C7.64703 12.001 7.3085 12.1418 7.05868 12.3916C6.80886 12.6414 6.66805 12.98 6.66699 13.3333V15.3333" stroke="white" stroke-miterlimit="10"/>
<path d="M0.666992 9.33331V15.3333H15.3337V9.33331" stroke="white" stroke-miterlimit="10" stroke-linecap="square"/>
<path d="M4.66701 5.33331L3.33368 15.3333" stroke="white" stroke-miterlimit="10"/>
<path d="M12.667 15.3333L11.3337 5.33331" stroke="white" stroke-miterlimit="10"/>
<path d="M13.3337 0.666626V3.99996C13.3337 4.35358 13.1932 4.69272 12.9431 4.94277C12.6931 5.19282 12.3539 5.33329 12.0003 5.33329H4.00033C3.6467 5.33329 3.30756 5.19282 3.05752 4.94277C2.80747 4.69272 2.66699 4.35358 2.66699 3.99996V0.666626" stroke="white" stroke-miterlimit="10" stroke-linecap="square"/>
<path d="M5.33368 0.666626V1.99996" stroke="white" stroke-miterlimit="10" stroke-linecap="square"/>
<path d="M8.00031 1.99996V0.666626" stroke="white" stroke-miterlimit="10" stroke-linecap="square"/>
<path d="M10.667 0.666626V1.99996" stroke="white" stroke-miterlimit="10" stroke-linecap="square"/>
<path d="M2.66699 1.99994H13.3337" stroke="white" stroke-miterlimit="10" stroke-linecap="square"/>
<path d="M2.00033 10.6666H0.666992" stroke="white" stroke-miterlimit="10" stroke-linecap="square"/>
<path d="M15.3336 10.6666H14.0003" stroke="white" stroke-miterlimit="10" stroke-linecap="square"/>
</svg>
