<svg width="14" height="16" viewBox="0 0 14 16" fill="none" xmlns="http://www.w3.org/2000/svg">
<path d="M2.43989 0.500122C2.37537 0.500063 2.31228 0.51915 2.25861 0.554968C2.20495 0.590785 2.16312 0.641721 2.13842 0.701327C2.11372 0.760932 2.10726 0.826527 2.11987 0.889804C2.13247 0.953081 2.16357 1.0112 2.20922 1.05679L3.28255 2.13346V14.2001L2.53322 14.9435C2.48757 14.989 2.45647 15.0472 2.44387 15.1104C2.43126 15.1737 2.43772 15.2393 2.46242 15.2989C2.48712 15.3585 2.52895 15.4095 2.58261 15.4453C2.63628 15.4811 2.69937 15.5002 2.76389 15.5001H11.2872C11.3337 15.5001 11.3796 15.4901 11.4219 15.4709C11.4642 15.4517 11.5019 15.4237 11.5326 15.3888L13.2446 13.4321C13.2858 13.385 13.3125 13.3271 13.3217 13.2652C13.3309 13.2033 13.322 13.1401 13.2962 13.0831C13.2704 13.026 13.2288 12.9777 13.1762 12.9437C13.1237 12.9097 13.0625 12.8916 12.9999 12.8915H6.54389V0.826122C6.54389 0.783311 6.53545 0.74092 6.51907 0.701367C6.50269 0.661815 6.47867 0.625877 6.4484 0.595605C6.41813 0.565333 6.38219 0.541321 6.34264 0.524937C6.30309 0.508554 6.2607 0.500122 6.21789 0.500122H2.43989Z" stroke="white" stroke-linecap="round" stroke-linejoin="round"/>
<path d="M11.4306 12.8915C12.2398 11.977 12.7634 10.8454 12.9366 9.63663C13.1099 8.42783 12.9252 7.19476 12.4053 6.08978C11.8855 4.9848 11.0533 4.05634 10.0116 3.4191C8.96993 2.78186 7.76436 2.46378 6.54388 2.50415" stroke="white" stroke-linecap="round" stroke-linejoin="round"/>
<path d="M3.28256 3.54944C2.42685 4.12042 1.72528 4.89374 1.24006 5.80083C0.754844 6.70792 0.500977 7.72073 0.500977 8.74944C0.500977 9.77815 0.754844 10.791 1.24006 11.698C1.72528 12.6051 2.42685 13.3785 3.28256 13.9494" stroke="white" stroke-linecap="round" stroke-linejoin="round"/>
<path d="M7.70922 12.8915C8.72571 12.6556 9.61994 12.0541 10.2216 11.2015C10.8232 10.3489 11.0901 9.30473 10.9716 8.26798C10.8531 7.23123 10.3574 6.27431 9.57883 5.57948C8.8003 4.88465 7.79338 4.50047 6.74988 4.50012C6.68322 4.50012 6.61188 4.50012 6.54388 4.50546" stroke="white" stroke-linecap="round" stroke-linejoin="round"/>
</svg>
