<svg width="16" height="16" viewBox="0 0 16 16" fill="none" xmlns="http://www.w3.org/2000/svg">
<path d="M10.8621 9.85657L12.6035 14H9.43332L8.524 11.4079L7.51722 12.1851L6.99774 14H4.61274L6.05992 8.93662H0.800781C1.58781 6.33513 3.28692 5.54437 4.83248 5.19639L6.74122 4.76611C7.06394 4.69318 7.28093 4.52231 7.36092 4.23789C7.47125 3.84928 7.09061 3.69196 6.52332 3.69196C5.86041 3.69196 5.17175 3.76072 4.85087 4.63796H2.23785C3.08557 2.31151 5.17176 2 6.71088 2C8.69593 2 10.4474 2.39173 9.90682 4.28373C9.53997 5.56833 8.20588 6.08508 7.28277 6.26845L4.96672 6.7279C4.41598 6.8373 4.09234 6.98837 3.87168 7.24362H8.93131L8.24449 9.62841L11.1416 7.24362H14.3008L10.8603 9.85657H10.8621Z" stroke="white" stroke-miterlimit="10"/>
</svg>
