<svg width="16" height="16" viewBox="0 0 16 16" fill="none" xmlns="http://www.w3.org/2000/svg">
<g id="Group">
<path id="Vector" d="M5.77079 3.8472C5.62233 3.80612 5.46639 3.7999 5.31513 3.82901C5.16387 3.85812 5.02138 3.92178 4.89877 4.01503C4.77617 4.10827 4.67676 4.22858 4.6083 4.36657C4.53985 4.50456 4.50419 4.6565 4.50412 4.81053V9.58453C4.49285 10.7601 4.92378 11.8971 5.71145 12.7699C6.79819 13.9583 8.15118 14.8722 9.65946 15.4365C9.88177 15.5181 10.1258 15.5181 10.3481 15.4365C11.8568 14.8726 13.2101 13.9587 14.2968 12.7699C15.0845 11.8971 15.5154 10.7601 15.5041 9.58453V4.81053C15.5042 4.65613 15.4685 4.5038 15.3999 4.36549C15.3312 4.22718 15.2315 4.10665 15.1085 4.01333C14.9854 3.92002 14.8425 3.85646 14.6908 3.82764C14.5391 3.79881 14.3828 3.80551 14.2341 3.8472C11.4682 4.6365 8.53669 4.6365 5.77079 3.8472V3.8472Z" stroke="white" stroke-linecap="round" stroke-linejoin="round"/>
<path id="Vector_2" d="M11.5002 2.68995V1.49995C11.5001 1.34591 11.4645 1.19398 11.396 1.05599C11.3276 0.917999 11.2282 0.79769 11.1056 0.704445C10.983 0.611199 10.8405 0.547538 10.6892 0.518426C10.5379 0.489315 10.382 0.49554 10.2335 0.536616C7.46879 1.32596 4.53831 1.32596 1.77355 0.536616C1.62466 0.49431 1.46799 0.487141 1.31587 0.515674C1.16374 0.544208 1.02031 0.607664 0.896879 0.701047C0.773445 0.794431 0.673373 0.915192 0.604541 1.05382C0.535709 1.19245 0.499997 1.34517 0.500215 1.49995V6.27462C0.488949 7.45023 0.919875 8.58715 1.70755 9.45995C1.82155 9.58395 1.94288 9.70928 2.07022 9.83528" stroke="white" stroke-linecap="round" stroke-linejoin="round"/>
<path id="Vector_3" d="M12 10.5C12 11.0304 11.7893 11.5391 11.4142 11.9142C11.0391 12.2893 10.5304 12.5 10 12.5C9.46957 12.5 8.96086 12.2893 8.58579 11.9142C8.21071 11.5391 8 11.0304 8 10.5" stroke="white" stroke-linecap="round" stroke-linejoin="round"/>
<path id="Vector_4" d="M6.5 7.5C6.5 7.23478 6.60536 6.98043 6.79289 6.79289C6.98043 6.60536 7.23478 6.5 7.5 6.5C7.76522 6.5 8.01957 6.60536 8.20711 6.79289C8.39464 6.98043 8.5 7.23478 8.5 7.5" stroke="white" stroke-linecap="round" stroke-linejoin="round"/>
<path id="Vector_5" d="M11.5 7.5C11.5 7.23478 11.6054 6.98043 11.7929 6.79289C11.9804 6.60536 12.2348 6.5 12.5 6.5C12.7652 6.5 13.0196 6.60536 13.2071 6.79289C13.3946 6.98043 13.5 7.23478 13.5 7.5" stroke="white" stroke-linecap="round" stroke-linejoin="round"/>
</g>
</svg>
