<svg width="16" height="16" viewBox="0 0 16 16" fill="none" xmlns="http://www.w3.org/2000/svg">
<g id="Group">
<path id="Vector" d="M5.39357 2.74144C5.46082 2.82509 5.5531 2.885 5.65689 2.91235C5.76068 2.93971 5.8705 2.93308 5.97024 2.89344C7.2723 2.36896 8.72685 2.36896 10.0289 2.89344C10.1286 2.93308 10.2385 2.93971 10.3423 2.91235C10.446 2.885 10.5383 2.82509 10.6056 2.74144L11.2562 1.92744C11.304 1.86793 11.3374 1.79827 11.354 1.72382C11.3706 1.64937 11.37 1.57211 11.3521 1.49795C11.3342 1.4238 11.2995 1.35474 11.2508 1.29606C11.202 1.23738 11.1405 1.19064 11.0709 1.15944C10.1053 0.724845 9.05847 0.500122 7.99957 0.500122C6.94068 0.500122 5.89384 0.724845 4.92824 1.15944C4.85873 1.19074 4.79729 1.23753 4.74863 1.29622C4.69997 1.35491 4.66538 1.42394 4.6475 1.49805C4.62961 1.57216 4.62891 1.64938 4.64545 1.7238C4.66199 1.79822 4.69532 1.86788 4.74291 1.92744L5.39357 2.74144Z" stroke="white" stroke-linecap="round" stroke-linejoin="round"/>
<path id="Vector_2" d="M13.9955 3.5068C13.9497 3.44585 13.8905 3.39619 13.8225 3.36162C13.7544 3.32704 13.6794 3.30847 13.6032 3.30731C13.5269 3.30615 13.4513 3.32244 13.3823 3.35494C13.3133 3.38743 13.2526 3.43527 13.2049 3.4948L12.5582 4.3028C12.4914 4.38666 12.4532 4.48977 12.4494 4.59695C12.4455 4.70413 12.4762 4.8097 12.5369 4.89813C13.1589 5.8052 13.4942 6.87813 13.4994 7.97796C13.5047 9.07779 13.1796 10.1539 12.5662 11.0668L10.6449 9.14547C10.5492 9.05053 10.4739 8.93712 10.4235 8.81213L9.57422 6.69013C9.54849 6.62584 9.50117 6.57252 9.4404 6.53933C9.37963 6.50613 9.30919 6.49514 9.2412 6.50823C9.1732 6.52133 9.11188 6.55769 9.06779 6.61108C9.02369 6.66447 8.99956 6.73155 8.99955 6.8008V9.6408C8.99965 9.8747 9.08175 10.1012 9.23155 10.2808L11.1115 12.5375C10.1956 13.1663 9.11059 13.5028 7.99955 13.5028C6.88851 13.5028 5.80353 13.1663 4.88755 12.5375L6.76755 10.2808C6.91735 10.1012 6.99944 9.8747 6.99955 9.6408V6.80013C6.99954 6.73089 6.97541 6.66381 6.93131 6.61042C6.88721 6.55703 6.8259 6.52066 6.7579 6.50757C6.6899 6.49447 6.61947 6.50547 6.5587 6.53866C6.49793 6.57186 6.45061 6.62518 6.42488 6.68947L5.57555 8.80947C5.52516 8.93445 5.44985 9.04786 5.35422 9.1428L3.43288 11.0668C2.81953 10.1539 2.49442 9.07779 2.49965 7.97796C2.50488 6.87813 2.84021 5.8052 3.46222 4.89813C3.52289 4.8097 3.55357 4.70413 3.54973 4.59695C3.54588 4.48977 3.50773 4.38666 3.44088 4.3028L2.79422 3.4948C2.7465 3.43527 2.68582 3.38743 2.61679 3.35494C2.54777 3.32244 2.47223 3.30615 2.39595 3.30731C2.31966 3.30847 2.24465 3.32704 2.17665 3.36162C2.10864 3.39619 2.04943 3.44585 2.00355 3.5068C1.29087 4.45739 0.814308 5.56374 0.613139 6.73467C0.411971 7.90559 0.491958 9.10756 0.846508 10.2415C1.20106 11.3754 1.82002 12.4089 2.65237 13.2567C3.48472 14.1044 4.50664 14.7423 5.63388 15.1176C6.76113 15.4929 7.96142 15.5949 9.13584 15.4153C10.3103 15.2356 11.4252 14.7794 12.3887 14.0843C13.3522 13.3892 14.1367 12.4751 14.6776 11.4173C15.2185 10.3594 15.5002 9.18821 15.4995 8.00013C15.5009 6.37854 14.9728 4.80083 13.9955 3.5068Z" stroke="white" stroke-linecap="round" stroke-linejoin="round"/>
</g>
</svg>
