<svg width="16" height="16" viewBox="0 0 16 16" fill="none" xmlns="http://www.w3.org/2000/svg">
<path d="M12 4.87449V2.94449C12 2.94449 11.9919 0.362875 8.04986 0.509189C8.04986 0.509189 4.30179 0.215806 4.00113 2.94449V13.1254C4.00113 13.1254 3.82432 15.5607 7.88609 15.4778C7.88609 15.4778 11.5396 15.8858 12 13.2069V6.73585C12 6.73585 11.7173 5.41298 9.22724 5.41298C9.22724 5.41298 8.07757 5.39111 7.61395 5.66187C7.53165 5.71014 7.42573 5.65659 7.42491 5.56759L7.40943 3.33743C7.40943 3.33743 7.95779 2.76575 8.66341 3.35402L8.6854 4.87449H12Z" stroke="white" stroke-miterlimit="40.78"/>
<path d="M8.64301 8.59707C8.64301 8.31882 8.39851 8.09326 7.99884 8.09326C7.59916 8.09326 7.34746 8.31882 7.34746 8.59707V11.9624C7.34746 12.2406 7.59196 12.4662 7.99965 12.4662C8.30025 12.4662 8.64301 12.2406 8.64301 11.9624V8.59707Z" stroke="white" stroke-miterlimit="40.78"/>
</svg>
