<svg width="16" height="16" viewBox="0 0 16 16" xmlns="http://www.w3.org/2000/svg" fill="none"><g clip-path="url(#clip0_3036_12114)"><path d="M5.27301 1.01099L8.00001 3.05699L10.727 1.01099" stroke="#FFFFFF" stroke-miterlimit="10" stroke-linecap="round" stroke-linejoin="round"/><path d="M0.510986 8.43401L3.29899 6.47201L2.19599 3.24701" stroke="#FFFFFF" stroke-miterlimit="10" stroke-linecap="round" stroke-linejoin="round"/><path d="M6.099 15.257L5.094 11.999L1.686 12.051" stroke="#FFFFFF" stroke-miterlimit="10" stroke-linecap="round" stroke-linejoin="round"/><path d="M14.314 12.051L10.906 11.999L9.901 15.257" stroke="#FFFFFF" stroke-miterlimit="10" stroke-linecap="round" stroke-linejoin="round"/><path d="M13.804 3.24701L12.701 6.47201L15.489 8.43401" stroke="#FFFFFF" stroke-miterlimit="10" stroke-linecap="round" stroke-linejoin="round"/><path d="M8 15.5C12.1421 15.5 15.5 12.1421 15.5 8C15.5 3.85786 12.1421 0.5 8 0.5C3.85786 0.5 0.5 3.85786 0.5 8C0.5 12.1421 3.85786 15.5 8 15.5Z" stroke="#FFFFFF" stroke-miterlimit="10" stroke-linecap="round" stroke-linejoin="round"/><path d="M9.36401 10.045H6.63601L5.27301 7.31801L8.00001 5.27301L10.727 7.31801L9.36401 10.045Z" stroke="#FFFFFF" stroke-miterlimit="10" stroke-linecap="round" stroke-linejoin="round"/></g><defs><clipPath id="clip0_3036_12114"><rect width="16" height="16" fill="#FFFFFF"/></clipPath></defs></svg>
