<svg width="16" height="16" viewBox="0 0 16 16" xmlns="http://www.w3.org/2000/svg" fill="none"><g clip-path="url(#clip0_6582_150767)"><path d="M0.671875 9.589C1.4904 9.88894 2.35512 10.0433 3.22688 10.045C5.01334 9.96522 6.70981 9.23837 7.99988 8" stroke="#FFFFFF" stroke-linecap="round" stroke-linejoin="round"/><path d="M14.07 12.4C13.7472 11.5903 13.2857 10.843 12.706 10.192C11.4556 8.91406 9.78282 8.1349 8 8" stroke="#FFFFFF" stroke-linecap="round" stroke-linejoin="round"/><path d="M7.87821 0.5C7.42389 1.24504 7.10308 2.06366 6.93021 2.919C6.65869 4.68639 7.03897 6.49222 8.00021 8" stroke="#FFFFFF" stroke-linecap="round" stroke-linejoin="round"/><path d="M11.6332 9.2627C10.3442 11.8777 8.39017 13.6157 2.82617 13.4287" stroke="#FFFFFF" stroke-linecap="round" stroke-linejoin="round"/><path d="M4.71205 9.84659C3.88333 8.73279 3.3421 7.4318 3.13627 6.05887C2.93044 4.68594 3.06638 3.28343 3.53205 1.97559" stroke="#FFFFFF" stroke-linecap="round" stroke-linejoin="round"/><path d="M6.83008 4.35833C9.59108 3.73133 12.1301 4.19433 15.4851 8.48533" stroke="#FFFFFF" stroke-linecap="round" stroke-linejoin="round"/><path d="M8 15.5C12.1421 15.5 15.5 12.1421 15.5 8C15.5 3.85786 12.1421 0.5 8 0.5C3.85786 0.5 0.5 3.85786 0.5 8C0.5 12.1421 3.85786 15.5 8 15.5Z" stroke="#FFFFFF" stroke-linecap="round" stroke-linejoin="round"/></g><defs><clipPath id="clip0_6582_150767"><rect width="16" height="16" fill="#FFFFFF"/></clipPath></defs></svg>
